# Tiled2Unity generated file. Do not modify by hand.
# Wavefront file for 'emptyroom_mesh_0002.obj'

# Vertices (Count = 232)
v 0 -16 0
v -16 -16 0
v -16 0 0
v 0 0 0
v -16 -16 0
v -32 -16 0
v -32 0 0
v -16 0 0
v -32 -16 0
v -48 -16 0
v -48 0 0
v -32 0 0
v -48 -16 0
v -64 -16 0
v -64 0 0
v -48 0 0
v -64 -16 0
v -80 -16 0
v -80 0 0
v -64 0 0
v -80 -16 0
v -96 -16 0
v -96 0 0
v -80 0 0
v -96 -16 0
v -112 -16 0
v -112 0 0
v -96 0 0
v -112 -16 0
v -128 -16 0
v -128 0 0
v -112 0 0
v -128 -16 0
v -144 -16 0
v -144 0 0
v -128 0 0
v -144 -16 0
v -160 -16 0
v -160 0 0
v -144 0 0
v -160 -16 0
v -176 -16 0
v -176 0 0
v -160 0 0
v -176 -16 0
v -192 -16 0
v -192 0 0
v -176 0 0
v -192 -16 0
v -208 -16 0
v -208 0 0
v -192 0 0
v -208 -16 0
v -224 -16 0
v -224 0 0
v -208 0 0
v -224 -16 0
v -240 -16 0
v -240 0 0
v -224 0 0
v -240 -16 0
v -256 -16 0
v -256 0 0
v -240 0 0
v 0 -32 0
v -16 -32 0
v -16 -16 0
v 0 -16 0
v -240 -32 0
v -256 -32 0
v -256 -16 0
v -240 -16 0
v 0 -48 0
v -16 -48 0
v -16 -32 0
v 0 -32 0
v -176 -48 0
v -192 -48 0
v -192 -32 0
v -176 -32 0
v -240 -48 0
v -256 -48 0
v -256 -32 0
v -240 -32 0
v 0 -64 0
v -16 -64 0
v -16 -48 0
v 0 -48 0
v -240 -64 0
v -256 -64 0
v -256 -48 0
v -240 -48 0
v 0 -80 0
v -16 -80 0
v -16 -64 0
v 0 -64 0
v -240 -80 0
v -256 -80 0
v -256 -64 0
v -240 -64 0
v 0 -96 0
v -16 -96 0
v -16 -80 0
v 0 -80 0
v -240 -96 0
v -256 -96 0
v -256 -80 0
v -240 -80 0
v 0 -112 0
v -16 -112 0
v -16 -96 0
v 0 -96 0
v -144 -112 0
v -160 -112 0
v -160 -96 0
v -144 -96 0
v -160 -112 0
v -176 -112 0
v -176 -96 0
v -160 -96 0
v -176 -112 0
v -192 -112 0
v -192 -96 0
v -176 -96 0
v -192 -112 0
v -208 -112 0
v -208 -96 0
v -192 -96 0
v -208 -112 0
v -224 -112 0
v -224 -96 0
v -208 -96 0
v -240 -112 0
v -256 -112 0
v -256 -96 0
v -240 -96 0
v 0 -128 0
v -16 -128 0
v -16 -112 0
v 0 -112 0
v -128 -128 0
v -144 -128 0
v -144 -112 0
v -128 -112 0
v -144 -128 0
v -160 -128 0
v -160 -112 0
v -144 -112 0
v -240 -128 0
v -256 -128 0
v -256 -112 0
v -240 -112 0
v 0 -144 0
v -16 -144 0
v -16 -128 0
v 0 -128 0
v -240 -144 0
v -256 -144 0
v -256 -128 0
v -240 -128 0
v 0 -160 0
v -16 -160 0
v -16 -144 0
v 0 -144 0
v -240 -160 0
v -256 -160 0
v -256 -144 0
v -240 -144 0
v 0 -176 0
v -16 -176 0
v -16 -160 0
v 0 -160 0
v -16 -176 0
v -32 -176 0
v -32 -160 0
v -16 -160 0
v -32 -176 0
v -48 -176 0
v -48 -160 0
v -32 -160 0
v -48 -176 0
v -64 -176 0
v -64 -160 0
v -48 -160 0
v -64 -176 0
v -80 -176 0
v -80 -160 0
v -64 -160 0
v -80 -176 0
v -96 -176 0
v -96 -160 0
v -80 -160 0
v -96 -176 0
v -112 -176 0
v -112 -160 0
v -96 -160 0
v -112 -176 0
v -128 -176 0
v -128 -160 0
v -112 -160 0
v -128 -176 0
v -144 -176 0
v -144 -160 0
v -128 -160 0
v -144 -176 0
v -160 -176 0
v -160 -160 0
v -144 -160 0
v -160 -176 0
v -176 -176 0
v -176 -160 0
v -160 -160 0
v -176 -176 0
v -192 -176 0
v -192 -160 0
v -176 -160 0
v -192 -176 0
v -208 -176 0
v -208 -160 0
v -192 -160 0
v -208 -176 0
v -224 -176 0
v -224 -160 0
v -208 -160 0
v -224 -176 0
v -240 -176 0
v -240 -160 0
v -224 -160 0
v -240 -176 0
v -256 -176 0
v -256 -160 0
v -240 -160 0

# Texture cooridinates (Count = 26)
vt 0.4375 0.875
vt 0.5 0.875
vt 0.5 0.9375
vt 0.4375 0.9375
vt 0.125 0.875
vt 0.1875 0.875
vt 0.1875 0.9375
vt 0.125 0.9375
vt 0.625 0.875
vt 0.6875 0.875
vt 0.6875 0.9375
vt 0.625 0.9375
vt 0.9375 0.9375
vt 1 0.9375
vt 1 1
vt 0.9375 1
vt 0.0625 0.875
vt 0.0625 0.9375
vt 0.3125 0.5
vt 0.375 0.5
vt 0.375 0.5625
vt 0.3125 0.5625
vt 0.5625 0.875
vt 0.5625 0.9375
vt 0 0.875
vt 0 0.9375

# Normal
vn 0 0 -1

# Mesh description
g emptyroom_mesh_0002

# Faces
f 1/1/1 2/2/1 3/3/1 4/4/1
f 5/5/1 6/6/1 7/7/1 8/8/1
f 9/5/1 10/6/1 11/7/1 12/8/1
f 13/5/1 14/6/1 15/7/1 16/8/1
f 17/5/1 18/6/1 19/7/1 20/8/1
f 21/5/1 22/6/1 23/7/1 24/8/1
f 25/5/1 26/6/1 27/7/1 28/8/1
f 29/5/1 30/6/1 31/7/1 32/8/1
f 33/5/1 34/6/1 35/7/1 36/8/1
f 37/5/1 38/6/1 39/7/1 40/8/1
f 41/5/1 42/6/1 43/7/1 44/8/1
f 45/5/1 46/6/1 47/7/1 48/8/1
f 49/5/1 50/6/1 51/7/1 52/8/1
f 53/5/1 54/6/1 55/7/1 56/8/1
f 57/5/1 58/6/1 59/7/1 60/8/1
f 61/9/1 62/10/1 63/11/1 64/12/1
f 65/13/1 66/14/1 67/15/1 68/16/1
f 69/17/1 70/5/1 71/8/1 72/18/1
f 73/13/1 74/14/1 75/15/1 76/16/1
f 77/19/1 78/20/1 79/21/1 80/22/1
f 81/17/1 82/5/1 83/8/1 84/18/1
f 85/13/1 86/14/1 87/15/1 88/16/1
f 89/17/1 90/5/1 91/8/1 92/18/1
f 93/13/1 94/14/1 95/15/1 96/16/1
f 97/17/1 98/5/1 99/8/1 100/18/1
f 101/13/1 102/14/1 103/15/1 104/16/1
f 105/17/1 106/5/1 107/8/1 108/18/1
f 109/13/1 110/14/1 111/15/1 112/16/1
f 113/19/1 114/20/1 115/21/1 116/22/1
f 117/19/1 118/20/1 119/21/1 120/22/1
f 121/19/1 122/20/1 123/21/1 124/22/1
f 125/19/1 126/20/1 127/21/1 128/22/1
f 129/19/1 130/20/1 131/21/1 132/22/1
f 133/17/1 134/5/1 135/8/1 136/18/1
f 137/13/1 138/14/1 139/15/1 140/16/1
f 141/19/1 142/20/1 143/21/1 144/22/1
f 145/19/1 146/20/1 147/21/1 148/22/1
f 149/17/1 150/5/1 151/8/1 152/18/1
f 153/13/1 154/14/1 155/15/1 156/16/1
f 157/17/1 158/5/1 159/8/1 160/18/1
f 161/13/1 162/14/1 163/15/1 164/16/1
f 165/17/1 166/5/1 167/8/1 168/18/1
f 169/2/1 170/23/1 171/24/1 172/3/1
f 173/25/1 174/17/1 175/18/1 176/26/1
f 177/25/1 178/17/1 179/18/1 180/26/1
f 181/25/1 182/17/1 183/18/1 184/26/1
f 185/25/1 186/17/1 187/18/1 188/26/1
f 189/25/1 190/17/1 191/18/1 192/26/1
f 193/25/1 194/17/1 195/18/1 196/26/1
f 197/25/1 198/17/1 199/18/1 200/26/1
f 201/25/1 202/17/1 203/18/1 204/26/1
f 205/25/1 206/17/1 207/18/1 208/26/1
f 209/25/1 210/17/1 211/18/1 212/26/1
f 213/25/1 214/17/1 215/18/1 216/26/1
f 217/25/1 218/17/1 219/18/1 220/26/1
f 221/25/1 222/17/1 223/18/1 224/26/1
f 225/25/1 226/17/1 227/18/1 228/26/1
f 229/23/1 230/9/1 231/12/1 232/24/1

