# Tiled2Unity generated file. Do not modify by hand.
# Wavefront file for 'cave1_mesh_0001.obj'

# Vertices (Count = 704)
v 0 -16 0
v -16 -16 0
v -16 0 0
v 0 0 0
v -16 -16 0
v -32 -16 0
v -32 0 0
v -16 0 0
v -32 -16 0
v -48 -16 0
v -48 0 0
v -32 0 0
v -48 -16 0
v -64 -16 0
v -64 0 0
v -48 0 0
v -64 -16 0
v -80 -16 0
v -80 0 0
v -64 0 0
v -80 -16 0
v -96 -16 0
v -96 0 0
v -80 0 0
v -96 -16 0
v -112 -16 0
v -112 0 0
v -96 0 0
v -112 -16 0
v -128 -16 0
v -128 0 0
v -112 0 0
v -128 -16 0
v -144 -16 0
v -144 0 0
v -128 0 0
v -144 -16 0
v -160 -16 0
v -160 0 0
v -144 0 0
v -160 -16 0
v -176 -16 0
v -176 0 0
v -160 0 0
v -176 -16 0
v -192 -16 0
v -192 0 0
v -176 0 0
v -192 -16 0
v -208 -16 0
v -208 0 0
v -192 0 0
v -208 -16 0
v -224 -16 0
v -224 0 0
v -208 0 0
v -224 -16 0
v -240 -16 0
v -240 0 0
v -224 0 0
v -240 -16 0
v -256 -16 0
v -256 0 0
v -240 0 0
v 0 -32 0
v -16 -32 0
v -16 -16 0
v 0 -16 0
v -16 -32 0
v -32 -32 0
v -32 -16 0
v -16 -16 0
v -32 -32 0
v -48 -32 0
v -48 -16 0
v -32 -16 0
v -48 -32 0
v -64 -32 0
v -64 -16 0
v -48 -16 0
v -64 -32 0
v -80 -32 0
v -80 -16 0
v -64 -16 0
v -80 -32 0
v -96 -32 0
v -96 -16 0
v -80 -16 0
v -96 -32 0
v -112 -32 0
v -112 -16 0
v -96 -16 0
v -112 -32 0
v -128 -32 0
v -128 -16 0
v -112 -16 0
v -128 -32 0
v -144 -32 0
v -144 -16 0
v -128 -16 0
v -144 -32 0
v -160 -32 0
v -160 -16 0
v -144 -16 0
v -160 -32 0
v -176 -32 0
v -176 -16 0
v -160 -16 0
v -176 -32 0
v -192 -32 0
v -192 -16 0
v -176 -16 0
v -192 -32 0
v -208 -32 0
v -208 -16 0
v -192 -16 0
v -208 -32 0
v -224 -32 0
v -224 -16 0
v -208 -16 0
v -224 -32 0
v -240 -32 0
v -240 -16 0
v -224 -16 0
v -240 -32 0
v -256 -32 0
v -256 -16 0
v -240 -16 0
v 0 -48 0
v -16 -48 0
v -16 -32 0
v 0 -32 0
v -16 -48 0
v -32 -48 0
v -32 -32 0
v -16 -32 0
v -32 -48 0
v -48 -48 0
v -48 -32 0
v -32 -32 0
v -48 -48 0
v -64 -48 0
v -64 -32 0
v -48 -32 0
v -64 -48 0
v -80 -48 0
v -80 -32 0
v -64 -32 0
v -80 -48 0
v -96 -48 0
v -96 -32 0
v -80 -32 0
v -96 -48 0
v -112 -48 0
v -112 -32 0
v -96 -32 0
v -112 -48 0
v -128 -48 0
v -128 -32 0
v -112 -32 0
v -128 -48 0
v -144 -48 0
v -144 -32 0
v -128 -32 0
v -144 -48 0
v -160 -48 0
v -160 -32 0
v -144 -32 0
v -160 -48 0
v -176 -48 0
v -176 -32 0
v -160 -32 0
v -176 -48 0
v -192 -48 0
v -192 -32 0
v -176 -32 0
v -192 -48 0
v -208 -48 0
v -208 -32 0
v -192 -32 0
v -208 -48 0
v -224 -48 0
v -224 -32 0
v -208 -32 0
v -224 -48 0
v -240 -48 0
v -240 -32 0
v -224 -32 0
v -240 -48 0
v -256 -48 0
v -256 -32 0
v -240 -32 0
v 0 -64 0
v -16 -64 0
v -16 -48 0
v 0 -48 0
v -16 -64 0
v -32 -64 0
v -32 -48 0
v -16 -48 0
v -32 -64 0
v -48 -64 0
v -48 -48 0
v -32 -48 0
v -48 -64 0
v -64 -64 0
v -64 -48 0
v -48 -48 0
v -64 -64 0
v -80 -64 0
v -80 -48 0
v -64 -48 0
v -80 -64 0
v -96 -64 0
v -96 -48 0
v -80 -48 0
v -96 -64 0
v -112 -64 0
v -112 -48 0
v -96 -48 0
v -112 -64 0
v -128 -64 0
v -128 -48 0
v -112 -48 0
v -128 -64 0
v -144 -64 0
v -144 -48 0
v -128 -48 0
v -144 -64 0
v -160 -64 0
v -160 -48 0
v -144 -48 0
v -160 -64 0
v -176 -64 0
v -176 -48 0
v -160 -48 0
v -176 -64 0
v -192 -64 0
v -192 -48 0
v -176 -48 0
v -192 -64 0
v -208 -64 0
v -208 -48 0
v -192 -48 0
v -208 -64 0
v -224 -64 0
v -224 -48 0
v -208 -48 0
v -224 -64 0
v -240 -64 0
v -240 -48 0
v -224 -48 0
v -240 -64 0
v -256 -64 0
v -256 -48 0
v -240 -48 0
v 0 -80 0
v -16 -80 0
v -16 -64 0
v 0 -64 0
v -16 -80 0
v -32 -80 0
v -32 -64 0
v -16 -64 0
v -32 -80 0
v -48 -80 0
v -48 -64 0
v -32 -64 0
v -48 -80 0
v -64 -80 0
v -64 -64 0
v -48 -64 0
v -64 -80 0
v -80 -80 0
v -80 -64 0
v -64 -64 0
v -80 -80 0
v -96 -80 0
v -96 -64 0
v -80 -64 0
v -96 -80 0
v -112 -80 0
v -112 -64 0
v -96 -64 0
v -112 -80 0
v -128 -80 0
v -128 -64 0
v -112 -64 0
v -128 -80 0
v -144 -80 0
v -144 -64 0
v -128 -64 0
v -144 -80 0
v -160 -80 0
v -160 -64 0
v -144 -64 0
v -160 -80 0
v -176 -80 0
v -176 -64 0
v -160 -64 0
v -176 -80 0
v -192 -80 0
v -192 -64 0
v -176 -64 0
v -192 -80 0
v -208 -80 0
v -208 -64 0
v -192 -64 0
v -208 -80 0
v -224 -80 0
v -224 -64 0
v -208 -64 0
v -224 -80 0
v -240 -80 0
v -240 -64 0
v -224 -64 0
v -240 -80 0
v -256 -80 0
v -256 -64 0
v -240 -64 0
v 0 -96 0
v -16 -96 0
v -16 -80 0
v 0 -80 0
v -16 -96 0
v -32 -96 0
v -32 -80 0
v -16 -80 0
v -32 -96 0
v -48 -96 0
v -48 -80 0
v -32 -80 0
v -48 -96 0
v -64 -96 0
v -64 -80 0
v -48 -80 0
v -64 -96 0
v -80 -96 0
v -80 -80 0
v -64 -80 0
v -80 -96 0
v -96 -96 0
v -96 -80 0
v -80 -80 0
v -96 -96 0
v -112 -96 0
v -112 -80 0
v -96 -80 0
v -112 -96 0
v -128 -96 0
v -128 -80 0
v -112 -80 0
v -128 -96 0
v -144 -96 0
v -144 -80 0
v -128 -80 0
v -144 -96 0
v -160 -96 0
v -160 -80 0
v -144 -80 0
v -160 -96 0
v -176 -96 0
v -176 -80 0
v -160 -80 0
v -176 -96 0
v -192 -96 0
v -192 -80 0
v -176 -80 0
v -192 -96 0
v -208 -96 0
v -208 -80 0
v -192 -80 0
v -208 -96 0
v -224 -96 0
v -224 -80 0
v -208 -80 0
v -224 -96 0
v -240 -96 0
v -240 -80 0
v -224 -80 0
v -240 -96 0
v -256 -96 0
v -256 -80 0
v -240 -80 0
v 0 -112 0
v -16 -112 0
v -16 -96 0
v 0 -96 0
v -16 -112 0
v -32 -112 0
v -32 -96 0
v -16 -96 0
v -32 -112 0
v -48 -112 0
v -48 -96 0
v -32 -96 0
v -48 -112 0
v -64 -112 0
v -64 -96 0
v -48 -96 0
v -64 -112 0
v -80 -112 0
v -80 -96 0
v -64 -96 0
v -80 -112 0
v -96 -112 0
v -96 -96 0
v -80 -96 0
v -96 -112 0
v -112 -112 0
v -112 -96 0
v -96 -96 0
v -112 -112 0
v -128 -112 0
v -128 -96 0
v -112 -96 0
v -128 -112 0
v -144 -112 0
v -144 -96 0
v -128 -96 0
v -144 -112 0
v -160 -112 0
v -160 -96 0
v -144 -96 0
v -160 -112 0
v -176 -112 0
v -176 -96 0
v -160 -96 0
v -176 -112 0
v -192 -112 0
v -192 -96 0
v -176 -96 0
v -192 -112 0
v -208 -112 0
v -208 -96 0
v -192 -96 0
v -208 -112 0
v -224 -112 0
v -224 -96 0
v -208 -96 0
v -224 -112 0
v -240 -112 0
v -240 -96 0
v -224 -96 0
v -240 -112 0
v -256 -112 0
v -256 -96 0
v -240 -96 0
v 0 -128 0
v -16 -128 0
v -16 -112 0
v 0 -112 0
v -16 -128 0
v -32 -128 0
v -32 -112 0
v -16 -112 0
v -32 -128 0
v -48 -128 0
v -48 -112 0
v -32 -112 0
v -48 -128 0
v -64 -128 0
v -64 -112 0
v -48 -112 0
v -64 -128 0
v -80 -128 0
v -80 -112 0
v -64 -112 0
v -80 -128 0
v -96 -128 0
v -96 -112 0
v -80 -112 0
v -96 -128 0
v -112 -128 0
v -112 -112 0
v -96 -112 0
v -112 -128 0
v -128 -128 0
v -128 -112 0
v -112 -112 0
v -128 -128 0
v -144 -128 0
v -144 -112 0
v -128 -112 0
v -144 -128 0
v -160 -128 0
v -160 -112 0
v -144 -112 0
v -160 -128 0
v -176 -128 0
v -176 -112 0
v -160 -112 0
v -176 -128 0
v -192 -128 0
v -192 -112 0
v -176 -112 0
v -192 -128 0
v -208 -128 0
v -208 -112 0
v -192 -112 0
v -208 -128 0
v -224 -128 0
v -224 -112 0
v -208 -112 0
v -224 -128 0
v -240 -128 0
v -240 -112 0
v -224 -112 0
v -240 -128 0
v -256 -128 0
v -256 -112 0
v -240 -112 0
v 0 -144 0
v -16 -144 0
v -16 -128 0
v 0 -128 0
v -16 -144 0
v -32 -144 0
v -32 -128 0
v -16 -128 0
v -32 -144 0
v -48 -144 0
v -48 -128 0
v -32 -128 0
v -48 -144 0
v -64 -144 0
v -64 -128 0
v -48 -128 0
v -64 -144 0
v -80 -144 0
v -80 -128 0
v -64 -128 0
v -80 -144 0
v -96 -144 0
v -96 -128 0
v -80 -128 0
v -96 -144 0
v -112 -144 0
v -112 -128 0
v -96 -128 0
v -112 -144 0
v -128 -144 0
v -128 -128 0
v -112 -128 0
v -128 -144 0
v -144 -144 0
v -144 -128 0
v -128 -128 0
v -144 -144 0
v -160 -144 0
v -160 -128 0
v -144 -128 0
v -160 -144 0
v -176 -144 0
v -176 -128 0
v -160 -128 0
v -176 -144 0
v -192 -144 0
v -192 -128 0
v -176 -128 0
v -192 -144 0
v -208 -144 0
v -208 -128 0
v -192 -128 0
v -208 -144 0
v -224 -144 0
v -224 -128 0
v -208 -128 0
v -224 -144 0
v -240 -144 0
v -240 -128 0
v -224 -128 0
v -240 -144 0
v -256 -144 0
v -256 -128 0
v -240 -128 0
v 0 -160 0
v -16 -160 0
v -16 -144 0
v 0 -144 0
v -16 -160 0
v -32 -160 0
v -32 -144 0
v -16 -144 0
v -32 -160 0
v -48 -160 0
v -48 -144 0
v -32 -144 0
v -48 -160 0
v -64 -160 0
v -64 -144 0
v -48 -144 0
v -64 -160 0
v -80 -160 0
v -80 -144 0
v -64 -144 0
v -80 -160 0
v -96 -160 0
v -96 -144 0
v -80 -144 0
v -96 -160 0
v -112 -160 0
v -112 -144 0
v -96 -144 0
v -112 -160 0
v -128 -160 0
v -128 -144 0
v -112 -144 0
v -128 -160 0
v -144 -160 0
v -144 -144 0
v -128 -144 0
v -144 -160 0
v -160 -160 0
v -160 -144 0
v -144 -144 0
v -160 -160 0
v -176 -160 0
v -176 -144 0
v -160 -144 0
v -176 -160 0
v -192 -160 0
v -192 -144 0
v -176 -144 0
v -192 -160 0
v -208 -160 0
v -208 -144 0
v -192 -144 0
v -208 -160 0
v -224 -160 0
v -224 -144 0
v -208 -144 0
v -224 -160 0
v -240 -160 0
v -240 -144 0
v -224 -144 0
v -240 -160 0
v -256 -160 0
v -256 -144 0
v -240 -144 0
v 0 -176 0
v -16 -176 0
v -16 -160 0
v 0 -160 0
v -16 -176 0
v -32 -176 0
v -32 -160 0
v -16 -160 0
v -32 -176 0
v -48 -176 0
v -48 -160 0
v -32 -160 0
v -48 -176 0
v -64 -176 0
v -64 -160 0
v -48 -160 0
v -64 -176 0
v -80 -176 0
v -80 -160 0
v -64 -160 0
v -80 -176 0
v -96 -176 0
v -96 -160 0
v -80 -160 0
v -96 -176 0
v -112 -176 0
v -112 -160 0
v -96 -160 0
v -112 -176 0
v -128 -176 0
v -128 -160 0
v -112 -160 0
v -128 -176 0
v -144 -176 0
v -144 -160 0
v -128 -160 0
v -144 -176 0
v -160 -176 0
v -160 -160 0
v -144 -160 0
v -160 -176 0
v -176 -176 0
v -176 -160 0
v -160 -160 0
v -176 -176 0
v -192 -176 0
v -192 -160 0
v -176 -160 0
v -192 -176 0
v -208 -176 0
v -208 -160 0
v -192 -160 0
v -208 -176 0
v -224 -176 0
v -224 -160 0
v -208 -160 0
v -224 -176 0
v -240 -176 0
v -240 -160 0
v -224 -160 0
v -240 -176 0
v -256 -176 0
v -256 -160 0
v -240 -160 0

# Texture cooridinates (Count = 32)
vt 0.4375 0.875
vt 0.5 0.875
vt 0.5 0.9375
vt 0.4375 0.9375
vt 0.125 0.875
vt 0.1875 0.875
vt 0.1875 0.9375
vt 0.125 0.9375
vt 0.9375 0.875
vt 1 0.875
vt 1 0.9375
vt 0.9375 0.9375
vt 0.625 0.875
vt 0.6875 0.875
vt 0.6875 0.9375
vt 0.625 0.9375
vt 1 1
vt 0.9375 1
vt 0 0.9375
vt 0.0625 0.9375
vt 0.0625 1
vt 0 1
vt 0.8125 0.75
vt 0.875 0.75
vt 0.875 0.8125
vt 0.8125 0.8125
vt 0.0625 0.875
vt 0.1875 1
vt 0.125 1
vt 0.5625 0.875
vt 0.5625 0.9375
vt 0 0.875

# Normal
vn 0 0 -1

# Mesh description
g cave1_mesh_0001

# Faces
f 1/1/1 2/2/1 3/3/1 4/4/1
f 5/5/1 6/6/1 7/7/1 8/8/1
f 9/5/1 10/6/1 11/7/1 12/8/1
f 13/9/1 14/10/1 15/11/1 16/12/1
f 17/5/1 18/6/1 19/7/1 20/8/1
f 21/5/1 22/6/1 23/7/1 24/8/1
f 25/5/1 26/6/1 27/7/1 28/8/1
f 29/5/1 30/6/1 31/7/1 32/8/1
f 33/5/1 34/6/1 35/7/1 36/8/1
f 37/5/1 38/6/1 39/7/1 40/8/1
f 41/5/1 42/6/1 43/7/1 44/8/1
f 45/5/1 46/6/1 47/7/1 48/8/1
f 49/5/1 50/6/1 51/7/1 52/8/1
f 53/5/1 54/6/1 55/7/1 56/8/1
f 57/5/1 58/6/1 59/7/1 60/8/1
f 61/13/1 62/14/1 63/15/1 64/16/1
f 65/12/1 66/11/1 67/17/1 68/18/1
f 69/19/1 70/20/1 71/21/1 72/22/1
f 73/23/1 74/24/1 75/25/1 76/26/1
f 77/19/1 78/20/1 79/21/1 80/22/1
f 81/19/1 82/20/1 83/21/1 84/22/1
f 85/19/1 86/20/1 87/21/1 88/22/1
f 89/19/1 90/20/1 91/21/1 92/22/1
f 93/19/1 94/20/1 95/21/1 96/22/1
f 97/19/1 98/20/1 99/21/1 100/22/1
f 101/19/1 102/20/1 103/21/1 104/22/1
f 105/19/1 106/20/1 107/21/1 108/22/1
f 109/19/1 110/20/1 111/21/1 112/22/1
f 113/19/1 114/20/1 115/21/1 116/22/1
f 117/19/1 118/20/1 119/21/1 120/22/1
f 121/19/1 122/20/1 123/21/1 124/22/1
f 125/27/1 126/5/1 127/8/1 128/20/1
f 129/12/1 130/11/1 131/17/1 132/18/1
f 133/19/1 134/20/1 135/21/1 136/22/1
f 137/19/1 138/20/1 139/21/1 140/22/1
f 141/19/1 142/20/1 143/21/1 144/22/1
f 145/19/1 146/20/1 147/21/1 148/22/1
f 149/19/1 150/20/1 151/21/1 152/22/1
f 153/19/1 154/20/1 155/21/1 156/22/1
f 157/19/1 158/20/1 159/21/1 160/22/1
f 161/19/1 162/20/1 163/21/1 164/22/1
f 165/19/1 166/20/1 167/21/1 168/22/1
f 169/19/1 170/20/1 171/21/1 172/22/1
f 173/8/1 174/7/1 175/28/1 176/29/1
f 177/19/1 178/20/1 179/21/1 180/22/1
f 181/19/1 182/20/1 183/21/1 184/22/1
f 185/19/1 186/20/1 187/21/1 188/22/1
f 189/27/1 190/5/1 191/8/1 192/20/1
f 193/12/1 194/11/1 195/17/1 196/18/1
f 197/19/1 198/20/1 199/21/1 200/22/1
f 201/19/1 202/20/1 203/21/1 204/22/1
f 205/19/1 206/20/1 207/21/1 208/22/1
f 209/19/1 210/20/1 211/21/1 212/22/1
f 213/19/1 214/20/1 215/21/1 216/22/1
f 217/19/1 218/20/1 219/21/1 220/22/1
f 221/19/1 222/20/1 223/21/1 224/22/1
f 225/19/1 226/20/1 227/21/1 228/22/1
f 229/20/1 230/8/1 231/29/1 232/21/1
f 233/20/1 234/8/1 235/29/1 236/21/1
f 237/20/1 238/8/1 239/29/1 240/21/1
f 241/19/1 242/20/1 243/21/1 244/22/1
f 245/19/1 246/20/1 247/21/1 248/22/1
f 249/19/1 250/20/1 251/21/1 252/22/1
f 253/27/1 254/5/1 255/8/1 256/20/1
f 257/12/1 258/11/1 259/17/1 260/18/1
f 261/19/1 262/20/1 263/21/1 264/22/1
f 265/19/1 266/20/1 267/21/1 268/22/1
f 269/19/1 270/20/1 271/21/1 272/22/1
f 273/19/1 274/20/1 275/21/1 276/22/1
f 277/19/1 278/20/1 279/21/1 280/22/1
f 281/19/1 282/20/1 283/21/1 284/22/1
f 285/8/1 286/7/1 287/28/1 288/29/1
f 289/20/1 290/8/1 291/29/1 292/21/1
f 293/20/1 294/8/1 295/29/1 296/21/1
f 297/20/1 298/8/1 299/29/1 300/21/1
f 301/20/1 302/8/1 303/29/1 304/21/1
f 305/20/1 306/8/1 307/29/1 308/21/1
f 309/19/1 310/20/1 311/21/1 312/22/1
f 313/19/1 314/20/1 315/21/1 316/22/1
f 317/27/1 318/5/1 319/8/1 320/20/1
f 321/12/1 322/11/1 323/17/1 324/18/1
f 325/19/1 326/20/1 327/21/1 328/22/1
f 329/19/1 330/20/1 331/21/1 332/22/1
f 333/19/1 334/20/1 335/21/1 336/22/1
f 337/19/1 338/20/1 339/21/1 340/22/1
f 341/19/1 342/20/1 343/21/1 344/22/1
f 345/20/1 346/8/1 347/29/1 348/21/1
f 349/8/1 350/7/1 351/28/1 352/29/1
f 353/19/1 354/20/1 355/21/1 356/22/1
f 357/20/1 358/8/1 359/29/1 360/21/1
f 361/20/1 362/8/1 363/29/1 364/21/1
f 365/19/1 366/20/1 367/21/1 368/22/1
f 369/20/1 370/8/1 371/29/1 372/21/1
f 373/19/1 374/20/1 375/21/1 376/22/1
f 377/19/1 378/20/1 379/21/1 380/22/1
f 381/27/1 382/5/1 383/8/1 384/20/1
f 385/12/1 386/11/1 387/17/1 388/18/1
f 389/19/1 390/20/1 391/21/1 392/22/1
f 393/19/1 394/20/1 395/21/1 396/22/1
f 397/19/1 398/20/1 399/21/1 400/22/1
f 401/8/1 402/7/1 403/28/1 404/29/1
f 405/20/1 406/8/1 407/29/1 408/21/1
f 409/19/1 410/20/1 411/21/1 412/22/1
f 413/20/1 414/8/1 415/29/1 416/21/1
f 417/20/1 418/8/1 419/29/1 420/21/1
f 421/20/1 422/8/1 423/29/1 424/21/1
f 425/19/1 426/20/1 427/21/1 428/22/1
f 429/20/1 430/8/1 431/29/1 432/21/1
f 433/8/1 434/7/1 435/28/1 436/29/1
f 437/19/1 438/20/1 439/21/1 440/22/1
f 441/19/1 442/20/1 443/21/1 444/22/1
f 445/27/1 446/5/1 447/8/1 448/20/1
f 449/12/1 450/11/1 451/17/1 452/18/1
f 453/19/1 454/20/1 455/21/1 456/22/1
f 457/19/1 458/20/1 459/21/1 460/22/1
f 461/20/1 462/8/1 463/29/1 464/21/1
f 465/20/1 466/8/1 467/29/1 468/21/1
f 469/19/1 470/20/1 471/21/1 472/22/1
f 473/20/1 474/8/1 475/29/1 476/21/1
f 477/20/1 478/8/1 479/29/1 480/21/1
f 481/19/1 482/20/1 483/21/1 484/22/1
f 485/19/1 486/20/1 487/21/1 488/22/1
f 489/19/1 490/20/1 491/21/1 492/22/1
f 493/20/1 494/8/1 495/29/1 496/21/1
f 497/19/1 498/20/1 499/21/1 500/22/1
f 501/19/1 502/20/1 503/21/1 504/22/1
f 505/19/1 506/20/1 507/21/1 508/22/1
f 509/27/1 510/5/1 511/8/1 512/20/1
f 513/12/1 514/11/1 515/17/1 516/18/1
f 517/19/1 518/20/1 519/21/1 520/22/1
f 521/20/1 522/8/1 523/29/1 524/21/1
f 525/20/1 526/8/1 527/29/1 528/21/1
f 529/20/1 530/8/1 531/29/1 532/21/1
f 533/8/1 534/7/1 535/28/1 536/29/1
f 537/20/1 538/8/1 539/29/1 540/21/1
f 541/19/1 542/20/1 543/21/1 544/22/1
f 545/19/1 546/20/1 547/21/1 548/22/1
f 549/19/1 550/20/1 551/21/1 552/22/1
f 553/19/1 554/20/1 555/21/1 556/22/1
f 557/19/1 558/20/1 559/21/1 560/22/1
f 561/19/1 562/20/1 563/21/1 564/22/1
f 565/19/1 566/20/1 567/21/1 568/22/1
f 569/19/1 570/20/1 571/21/1 572/22/1
f 573/27/1 574/5/1 575/8/1 576/20/1
f 577/12/1 578/11/1 579/17/1 580/18/1
f 581/19/1 582/20/1 583/21/1 584/22/1
f 585/20/1 586/8/1 587/29/1 588/21/1
f 589/20/1 590/8/1 591/29/1 592/21/1
f 593/19/1 594/20/1 595/21/1 596/22/1
f 597/19/1 598/20/1 599/21/1 600/22/1
f 601/19/1 602/20/1 603/21/1 604/22/1
f 605/19/1 606/20/1 607/21/1 608/22/1
f 609/19/1 610/20/1 611/21/1 612/22/1
f 613/19/1 614/20/1 615/21/1 616/22/1
f 617/19/1 618/20/1 619/21/1 620/22/1
f 621/19/1 622/20/1 623/21/1 624/22/1
f 625/19/1 626/20/1 627/21/1 628/22/1
f 629/19/1 630/20/1 631/21/1 632/22/1
f 633/19/1 634/20/1 635/21/1 636/22/1
f 637/27/1 638/5/1 639/8/1 640/20/1
f 641/2/1 642/30/1 643/31/1 644/3/1
f 645/32/1 646/27/1 647/20/1 648/19/1
f 649/32/1 650/27/1 651/20/1 652/19/1
f 653/32/1 654/27/1 655/20/1 656/19/1
f 657/32/1 658/27/1 659/20/1 660/19/1
f 661/32/1 662/27/1 663/20/1 664/19/1
f 665/32/1 666/27/1 667/20/1 668/19/1
f 669/32/1 670/27/1 671/20/1 672/19/1
f 673/32/1 674/27/1 675/20/1 676/19/1
f 677/32/1 678/27/1 679/20/1 680/19/1
f 681/32/1 682/27/1 683/20/1 684/19/1
f 685/32/1 686/27/1 687/20/1 688/19/1
f 689/32/1 690/27/1 691/20/1 692/19/1
f 693/32/1 694/27/1 695/20/1 696/19/1
f 697/32/1 698/27/1 699/20/1 700/19/1
f 701/30/1 702/13/1 703/16/1 704/31/1

