# Tiled2Unity generated file. Do not modify by hand.
# Wavefront file for 'lab2_mesh_0001.obj'

# Vertices (Count = 704)
v 0 -16 0
v -16 -16 0
v -16 0 0
v 0 0 0
v -16 -16 0
v -32 -16 0
v -32 0 0
v -16 0 0
v -32 -16 0
v -48 -16 0
v -48 0 0
v -32 0 0
v -48 -16 0
v -64 -16 0
v -64 0 0
v -48 0 0
v -64 -16 0
v -80 -16 0
v -80 0 0
v -64 0 0
v -80 -16 0
v -96 -16 0
v -96 0 0
v -80 0 0
v -96 -16 0
v -112 -16 0
v -112 0 0
v -96 0 0
v -112 -16 0
v -128 -16 0
v -128 0 0
v -112 0 0
v -128 -16 0
v -144 -16 0
v -144 0 0
v -128 0 0
v -144 -16 0
v -160 -16 0
v -160 0 0
v -144 0 0
v -160 -16 0
v -176 -16 0
v -176 0 0
v -160 0 0
v -176 -16 0
v -192 -16 0
v -192 0 0
v -176 0 0
v -192 -16 0
v -208 -16 0
v -208 0 0
v -192 0 0
v -208 -16 0
v -224 -16 0
v -224 0 0
v -208 0 0
v -224 -16 0
v -240 -16 0
v -240 0 0
v -224 0 0
v -240 -16 0
v -256 -16 0
v -256 0 0
v -240 0 0
v 0 -32 0
v -16 -32 0
v -16 -16 0
v 0 -16 0
v -16 -32 0
v -32 -32 0
v -32 -16 0
v -16 -16 0
v -32 -32 0
v -48 -32 0
v -48 -16 0
v -32 -16 0
v -48 -32 0
v -64 -32 0
v -64 -16 0
v -48 -16 0
v -64 -32 0
v -80 -32 0
v -80 -16 0
v -64 -16 0
v -80 -32 0
v -96 -32 0
v -96 -16 0
v -80 -16 0
v -96 -32 0
v -112 -32 0
v -112 -16 0
v -96 -16 0
v -112 -32 0
v -128 -32 0
v -128 -16 0
v -112 -16 0
v -128 -32 0
v -144 -32 0
v -144 -16 0
v -128 -16 0
v -144 -32 0
v -160 -32 0
v -160 -16 0
v -144 -16 0
v -160 -32 0
v -176 -32 0
v -176 -16 0
v -160 -16 0
v -176 -32 0
v -192 -32 0
v -192 -16 0
v -176 -16 0
v -192 -32 0
v -208 -32 0
v -208 -16 0
v -192 -16 0
v -208 -32 0
v -224 -32 0
v -224 -16 0
v -208 -16 0
v -224 -32 0
v -240 -32 0
v -240 -16 0
v -224 -16 0
v -240 -32 0
v -256 -32 0
v -256 -16 0
v -240 -16 0
v 0 -48 0
v -16 -48 0
v -16 -32 0
v 0 -32 0
v -16 -48 0
v -32 -48 0
v -32 -32 0
v -16 -32 0
v -32 -48 0
v -48 -48 0
v -48 -32 0
v -32 -32 0
v -48 -48 0
v -64 -48 0
v -64 -32 0
v -48 -32 0
v -64 -48 0
v -80 -48 0
v -80 -32 0
v -64 -32 0
v -80 -48 0
v -96 -48 0
v -96 -32 0
v -80 -32 0
v -96 -48 0
v -112 -48 0
v -112 -32 0
v -96 -32 0
v -112 -48 0
v -128 -48 0
v -128 -32 0
v -112 -32 0
v -128 -48 0
v -144 -48 0
v -144 -32 0
v -128 -32 0
v -144 -48 0
v -160 -48 0
v -160 -32 0
v -144 -32 0
v -160 -48 0
v -176 -48 0
v -176 -32 0
v -160 -32 0
v -176 -48 0
v -192 -48 0
v -192 -32 0
v -176 -32 0
v -192 -48 0
v -208 -48 0
v -208 -32 0
v -192 -32 0
v -208 -48 0
v -224 -48 0
v -224 -32 0
v -208 -32 0
v -224 -48 0
v -240 -48 0
v -240 -32 0
v -224 -32 0
v -240 -48 0
v -256 -48 0
v -256 -32 0
v -240 -32 0
v 0 -64 0
v -16 -64 0
v -16 -48 0
v 0 -48 0
v -16 -64 0
v -32 -64 0
v -32 -48 0
v -16 -48 0
v -32 -64 0
v -48 -64 0
v -48 -48 0
v -32 -48 0
v -48 -64 0
v -64 -64 0
v -64 -48 0
v -48 -48 0
v -64 -64 0
v -80 -64 0
v -80 -48 0
v -64 -48 0
v -80 -64 0
v -96 -64 0
v -96 -48 0
v -80 -48 0
v -96 -64 0
v -112 -64 0
v -112 -48 0
v -96 -48 0
v -112 -64 0
v -128 -64 0
v -128 -48 0
v -112 -48 0
v -128 -64 0
v -144 -64 0
v -144 -48 0
v -128 -48 0
v -144 -64 0
v -160 -64 0
v -160 -48 0
v -144 -48 0
v -160 -64 0
v -176 -64 0
v -176 -48 0
v -160 -48 0
v -176 -64 0
v -192 -64 0
v -192 -48 0
v -176 -48 0
v -192 -64 0
v -208 -64 0
v -208 -48 0
v -192 -48 0
v -208 -64 0
v -224 -64 0
v -224 -48 0
v -208 -48 0
v -224 -64 0
v -240 -64 0
v -240 -48 0
v -224 -48 0
v -240 -64 0
v -256 -64 0
v -256 -48 0
v -240 -48 0
v 0 -80 0
v -16 -80 0
v -16 -64 0
v 0 -64 0
v -16 -80 0
v -32 -80 0
v -32 -64 0
v -16 -64 0
v -32 -80 0
v -48 -80 0
v -48 -64 0
v -32 -64 0
v -48 -80 0
v -64 -80 0
v -64 -64 0
v -48 -64 0
v -64 -80 0
v -80 -80 0
v -80 -64 0
v -64 -64 0
v -80 -80 0
v -96 -80 0
v -96 -64 0
v -80 -64 0
v -96 -80 0
v -112 -80 0
v -112 -64 0
v -96 -64 0
v -112 -80 0
v -128 -80 0
v -128 -64 0
v -112 -64 0
v -128 -80 0
v -144 -80 0
v -144 -64 0
v -128 -64 0
v -144 -80 0
v -160 -80 0
v -160 -64 0
v -144 -64 0
v -160 -80 0
v -176 -80 0
v -176 -64 0
v -160 -64 0
v -176 -80 0
v -192 -80 0
v -192 -64 0
v -176 -64 0
v -192 -80 0
v -208 -80 0
v -208 -64 0
v -192 -64 0
v -208 -80 0
v -224 -80 0
v -224 -64 0
v -208 -64 0
v -224 -80 0
v -240 -80 0
v -240 -64 0
v -224 -64 0
v -240 -80 0
v -256 -80 0
v -256 -64 0
v -240 -64 0
v 0 -96 0
v -16 -96 0
v -16 -80 0
v 0 -80 0
v -16 -96 0
v -32 -96 0
v -32 -80 0
v -16 -80 0
v -32 -96 0
v -48 -96 0
v -48 -80 0
v -32 -80 0
v -48 -96 0
v -64 -96 0
v -64 -80 0
v -48 -80 0
v -64 -96 0
v -80 -96 0
v -80 -80 0
v -64 -80 0
v -80 -96 0
v -96 -96 0
v -96 -80 0
v -80 -80 0
v -96 -96 0
v -112 -96 0
v -112 -80 0
v -96 -80 0
v -112 -96 0
v -128 -96 0
v -128 -80 0
v -112 -80 0
v -128 -96 0
v -144 -96 0
v -144 -80 0
v -128 -80 0
v -144 -96 0
v -160 -96 0
v -160 -80 0
v -144 -80 0
v -160 -96 0
v -176 -96 0
v -176 -80 0
v -160 -80 0
v -176 -96 0
v -192 -96 0
v -192 -80 0
v -176 -80 0
v -192 -96 0
v -208 -96 0
v -208 -80 0
v -192 -80 0
v -208 -96 0
v -224 -96 0
v -224 -80 0
v -208 -80 0
v -224 -96 0
v -240 -96 0
v -240 -80 0
v -224 -80 0
v -240 -96 0
v -256 -96 0
v -256 -80 0
v -240 -80 0
v 0 -112 0
v -16 -112 0
v -16 -96 0
v 0 -96 0
v -16 -112 0
v -32 -112 0
v -32 -96 0
v -16 -96 0
v -32 -112 0
v -48 -112 0
v -48 -96 0
v -32 -96 0
v -48 -112 0
v -64 -112 0
v -64 -96 0
v -48 -96 0
v -64 -112 0
v -80 -112 0
v -80 -96 0
v -64 -96 0
v -80 -112 0
v -96 -112 0
v -96 -96 0
v -80 -96 0
v -96 -112 0
v -112 -112 0
v -112 -96 0
v -96 -96 0
v -112 -112 0
v -128 -112 0
v -128 -96 0
v -112 -96 0
v -128 -112 0
v -144 -112 0
v -144 -96 0
v -128 -96 0
v -144 -112 0
v -160 -112 0
v -160 -96 0
v -144 -96 0
v -160 -112 0
v -176 -112 0
v -176 -96 0
v -160 -96 0
v -176 -112 0
v -192 -112 0
v -192 -96 0
v -176 -96 0
v -192 -112 0
v -208 -112 0
v -208 -96 0
v -192 -96 0
v -208 -112 0
v -224 -112 0
v -224 -96 0
v -208 -96 0
v -224 -112 0
v -240 -112 0
v -240 -96 0
v -224 -96 0
v -240 -112 0
v -256 -112 0
v -256 -96 0
v -240 -96 0
v 0 -128 0
v -16 -128 0
v -16 -112 0
v 0 -112 0
v -16 -128 0
v -32 -128 0
v -32 -112 0
v -16 -112 0
v -32 -128 0
v -48 -128 0
v -48 -112 0
v -32 -112 0
v -48 -128 0
v -64 -128 0
v -64 -112 0
v -48 -112 0
v -64 -128 0
v -80 -128 0
v -80 -112 0
v -64 -112 0
v -80 -128 0
v -96 -128 0
v -96 -112 0
v -80 -112 0
v -96 -128 0
v -112 -128 0
v -112 -112 0
v -96 -112 0
v -112 -128 0
v -128 -128 0
v -128 -112 0
v -112 -112 0
v -128 -128 0
v -144 -128 0
v -144 -112 0
v -128 -112 0
v -144 -128 0
v -160 -128 0
v -160 -112 0
v -144 -112 0
v -160 -128 0
v -176 -128 0
v -176 -112 0
v -160 -112 0
v -176 -128 0
v -192 -128 0
v -192 -112 0
v -176 -112 0
v -192 -128 0
v -208 -128 0
v -208 -112 0
v -192 -112 0
v -208 -128 0
v -224 -128 0
v -224 -112 0
v -208 -112 0
v -224 -128 0
v -240 -128 0
v -240 -112 0
v -224 -112 0
v -240 -128 0
v -256 -128 0
v -256 -112 0
v -240 -112 0
v 0 -144 0
v -16 -144 0
v -16 -128 0
v 0 -128 0
v -16 -144 0
v -32 -144 0
v -32 -128 0
v -16 -128 0
v -32 -144 0
v -48 -144 0
v -48 -128 0
v -32 -128 0
v -48 -144 0
v -64 -144 0
v -64 -128 0
v -48 -128 0
v -64 -144 0
v -80 -144 0
v -80 -128 0
v -64 -128 0
v -80 -144 0
v -96 -144 0
v -96 -128 0
v -80 -128 0
v -96 -144 0
v -112 -144 0
v -112 -128 0
v -96 -128 0
v -112 -144 0
v -128 -144 0
v -128 -128 0
v -112 -128 0
v -128 -144 0
v -144 -144 0
v -144 -128 0
v -128 -128 0
v -144 -144 0
v -160 -144 0
v -160 -128 0
v -144 -128 0
v -160 -144 0
v -176 -144 0
v -176 -128 0
v -160 -128 0
v -176 -144 0
v -192 -144 0
v -192 -128 0
v -176 -128 0
v -192 -144 0
v -208 -144 0
v -208 -128 0
v -192 -128 0
v -208 -144 0
v -224 -144 0
v -224 -128 0
v -208 -128 0
v -224 -144 0
v -240 -144 0
v -240 -128 0
v -224 -128 0
v -240 -144 0
v -256 -144 0
v -256 -128 0
v -240 -128 0
v 0 -160 0
v -16 -160 0
v -16 -144 0
v 0 -144 0
v -16 -160 0
v -32 -160 0
v -32 -144 0
v -16 -144 0
v -32 -160 0
v -48 -160 0
v -48 -144 0
v -32 -144 0
v -48 -160 0
v -64 -160 0
v -64 -144 0
v -48 -144 0
v -64 -160 0
v -80 -160 0
v -80 -144 0
v -64 -144 0
v -80 -160 0
v -96 -160 0
v -96 -144 0
v -80 -144 0
v -96 -160 0
v -112 -160 0
v -112 -144 0
v -96 -144 0
v -112 -160 0
v -128 -160 0
v -128 -144 0
v -112 -144 0
v -128 -160 0
v -144 -160 0
v -144 -144 0
v -128 -144 0
v -144 -160 0
v -160 -160 0
v -160 -144 0
v -144 -144 0
v -160 -160 0
v -176 -160 0
v -176 -144 0
v -160 -144 0
v -176 -160 0
v -192 -160 0
v -192 -144 0
v -176 -144 0
v -192 -160 0
v -208 -160 0
v -208 -144 0
v -192 -144 0
v -208 -160 0
v -224 -160 0
v -224 -144 0
v -208 -144 0
v -224 -160 0
v -240 -160 0
v -240 -144 0
v -224 -144 0
v -240 -160 0
v -256 -160 0
v -256 -144 0
v -240 -144 0
v 0 -176 0
v -16 -176 0
v -16 -160 0
v 0 -160 0
v -16 -176 0
v -32 -176 0
v -32 -160 0
v -16 -160 0
v -32 -176 0
v -48 -176 0
v -48 -160 0
v -32 -160 0
v -48 -176 0
v -64 -176 0
v -64 -160 0
v -48 -160 0
v -64 -176 0
v -80 -176 0
v -80 -160 0
v -64 -160 0
v -80 -176 0
v -96 -176 0
v -96 -160 0
v -80 -160 0
v -96 -176 0
v -112 -176 0
v -112 -160 0
v -96 -160 0
v -112 -176 0
v -128 -176 0
v -128 -160 0
v -112 -160 0
v -128 -176 0
v -144 -176 0
v -144 -160 0
v -128 -160 0
v -144 -176 0
v -160 -176 0
v -160 -160 0
v -144 -160 0
v -160 -176 0
v -176 -176 0
v -176 -160 0
v -160 -160 0
v -176 -176 0
v -192 -176 0
v -192 -160 0
v -176 -160 0
v -192 -176 0
v -208 -176 0
v -208 -160 0
v -192 -160 0
v -208 -176 0
v -224 -176 0
v -224 -160 0
v -208 -160 0
v -224 -176 0
v -240 -176 0
v -240 -160 0
v -224 -160 0
v -240 -176 0
v -256 -176 0
v -256 -160 0
v -240 -160 0

# Texture cooridinates (Count = 42)
vt 0 0.9
vt 0.1 0.9
vt 0.1 1
vt 0 1
vt 0.2 0.9
vt 0.2 1
vt 0.3 0.9
vt 0.3 1
vt 0 0.8
vt 0.1 0.8
vt 0.2 0.8
vt 0.3 0.8
vt 0.5 0.5
vt 0.6 0.5
vt 0.6 0.6
vt 0.5 0.6
vt 0.9 0.7
vt 1 0.7
vt 1 0.8
vt 0.9 0.8
vt 0.4 0.5
vt 0.4 0.6
vt 0.7 0.5
vt 0.8 0.5
vt 0.8 0.6
vt 0.7 0.6
vt 0.9 0.6
vt 0.8 0.7
vt 0.2 0.4
vt 0.3 0.4
vt 0.3 0.5
vt 0.2 0.5
vt 0.4 0.4
vt 1 0.6
vt 0.3 0.6
vt 0.2 0.6
vt 0.9 0.5
vt 1 0.5
vt 0 0.7
vt 0.1 0.7
vt 0.2 0.7
vt 0.3 0.7

# Normal
vn 0 0 -1

# Mesh description
g lab2_mesh_0001

# Faces
f 1/1/1 2/2/1 3/3/1 4/4/1
f 5/2/1 6/5/1 7/6/1 8/3/1
f 9/2/1 10/5/1 11/6/1 12/3/1
f 13/2/1 14/5/1 15/6/1 16/3/1
f 17/2/1 18/5/1 19/6/1 20/3/1
f 21/2/1 22/5/1 23/6/1 24/3/1
f 25/2/1 26/5/1 27/6/1 28/3/1
f 29/2/1 30/5/1 31/6/1 32/3/1
f 33/2/1 34/5/1 35/6/1 36/3/1
f 37/2/1 38/5/1 39/6/1 40/3/1
f 41/2/1 42/5/1 43/6/1 44/3/1
f 45/2/1 46/5/1 47/6/1 48/3/1
f 49/2/1 50/5/1 51/6/1 52/3/1
f 53/2/1 54/5/1 55/6/1 56/3/1
f 57/2/1 58/5/1 59/6/1 60/3/1
f 61/5/1 62/7/1 63/8/1 64/6/1
f 65/9/1 66/10/1 67/2/1 68/1/1
f 69/10/1 70/11/1 71/5/1 72/2/1
f 73/10/1 74/11/1 75/5/1 76/2/1
f 77/10/1 78/11/1 79/5/1 80/2/1
f 81/10/1 82/11/1 83/5/1 84/2/1
f 85/10/1 86/11/1 87/5/1 88/2/1
f 89/10/1 90/11/1 91/5/1 92/2/1
f 93/10/1 94/11/1 95/5/1 96/2/1
f 97/10/1 98/11/1 99/5/1 100/2/1
f 101/10/1 102/11/1 103/5/1 104/2/1
f 105/10/1 106/11/1 107/5/1 108/2/1
f 109/10/1 110/11/1 111/5/1 112/2/1
f 113/10/1 114/11/1 115/5/1 116/2/1
f 117/10/1 118/11/1 119/5/1 120/2/1
f 121/10/1 122/11/1 123/5/1 124/2/1
f 125/11/1 126/12/1 127/7/1 128/5/1
f 129/9/1 130/10/1 131/2/1 132/1/1
f 133/10/1 134/11/1 135/5/1 136/2/1
f 137/10/1 138/11/1 139/5/1 140/2/1
f 141/10/1 142/11/1 143/5/1 144/2/1
f 145/10/1 146/11/1 147/5/1 148/2/1
f 149/13/1 150/14/1 151/15/1 152/16/1
f 153/17/1 154/18/1 155/19/1 156/20/1
f 157/21/1 158/13/1 159/16/1 160/22/1
f 161/13/1 162/14/1 163/15/1 164/16/1
f 165/17/1 166/18/1 167/19/1 168/20/1
f 169/21/1 170/13/1 171/16/1 172/22/1
f 173/10/1 174/11/1 175/5/1 176/2/1
f 177/10/1 178/11/1 179/5/1 180/2/1
f 181/10/1 182/11/1 183/5/1 184/2/1
f 185/10/1 186/11/1 187/5/1 188/2/1
f 189/11/1 190/12/1 191/7/1 192/5/1
f 193/9/1 194/10/1 195/2/1 196/1/1
f 197/10/1 198/11/1 199/5/1 200/2/1
f 201/10/1 202/11/1 203/5/1 204/2/1
f 205/10/1 206/11/1 207/5/1 208/2/1
f 209/10/1 210/11/1 211/5/1 212/2/1
f 213/23/1 214/24/1 215/25/1 216/26/1
f 217/25/1 218/27/1 219/17/1 220/28/1
f 221/29/1 222/30/1 223/31/1 224/32/1
f 225/30/1 226/33/1 227/21/1 228/31/1
f 229/25/1 230/27/1 231/17/1 232/28/1
f 233/27/1 234/34/1 235/18/1 236/17/1
f 237/10/1 238/11/1 239/5/1 240/2/1
f 241/10/1 242/11/1 243/5/1 244/2/1
f 245/10/1 246/11/1 247/5/1 248/2/1
f 249/10/1 250/11/1 251/5/1 252/2/1
f 253/11/1 254/12/1 255/7/1 256/5/1
f 257/9/1 258/10/1 259/2/1 260/1/1
f 261/10/1 262/11/1 263/5/1 264/2/1
f 265/10/1 266/11/1 267/5/1 268/2/1
f 269/10/1 270/11/1 271/5/1 272/2/1
f 273/10/1 274/11/1 275/5/1 276/2/1
f 277/14/1 278/23/1 279/26/1 280/15/1
f 281/31/1 282/21/1 283/22/1 284/35/1
f 285/25/1 286/27/1 287/17/1 288/28/1
f 289/25/1 290/27/1 291/17/1 292/28/1
f 293/32/1 294/31/1 295/35/1 296/36/1
f 297/37/1 298/38/1 299/34/1 300/27/1
f 301/10/1 302/11/1 303/5/1 304/2/1
f 305/10/1 306/11/1 307/5/1 308/2/1
f 309/10/1 310/11/1 311/5/1 312/2/1
f 313/10/1 314/11/1 315/5/1 316/2/1
f 317/11/1 318/12/1 319/7/1 320/5/1
f 321/9/1 322/10/1 323/2/1 324/1/1
f 325/10/1 326/11/1 327/5/1 328/2/1
f 329/10/1 330/11/1 331/5/1 332/2/1
f 333/10/1 334/11/1 335/5/1 336/2/1
f 337/10/1 338/11/1 339/5/1 340/2/1
f 341/13/1 342/14/1 343/15/1 344/16/1
f 345/30/1 346/33/1 347/21/1 348/31/1
f 349/25/1 350/27/1 351/17/1 352/28/1
f 353/25/1 354/27/1 355/17/1 356/28/1
f 357/29/1 358/30/1 359/31/1 360/32/1
f 361/21/1 362/13/1 363/16/1 364/22/1
f 365/10/1 366/11/1 367/5/1 368/2/1
f 369/10/1 370/11/1 371/5/1 372/2/1
f 373/10/1 374/11/1 375/5/1 376/2/1
f 377/10/1 378/11/1 379/5/1 380/2/1
f 381/11/1 382/12/1 383/7/1 384/5/1
f 385/9/1 386/10/1 387/2/1 388/1/1
f 389/10/1 390/11/1 391/5/1 392/2/1
f 393/10/1 394/11/1 395/5/1 396/2/1
f 397/10/1 398/11/1 399/5/1 400/2/1
f 401/10/1 402/11/1 403/5/1 404/2/1
f 405/23/1 406/24/1 407/25/1 408/26/1
f 409/25/1 410/27/1 411/17/1 412/28/1
f 413/32/1 414/31/1 415/35/1 416/36/1
f 417/31/1 418/21/1 419/22/1 420/35/1
f 421/25/1 422/27/1 423/17/1 424/28/1
f 425/27/1 426/34/1 427/18/1 428/17/1
f 429/10/1 430/11/1 431/5/1 432/2/1
f 433/10/1 434/11/1 435/5/1 436/2/1
f 437/10/1 438/11/1 439/5/1 440/2/1
f 441/10/1 442/11/1 443/5/1 444/2/1
f 445/11/1 446/12/1 447/7/1 448/5/1
f 449/9/1 450/10/1 451/2/1 452/1/1
f 453/10/1 454/11/1 455/5/1 456/2/1
f 457/10/1 458/11/1 459/5/1 460/2/1
f 461/10/1 462/11/1 463/5/1 464/2/1
f 465/10/1 466/11/1 467/5/1 468/2/1
f 469/14/1 470/23/1 471/26/1 472/15/1
f 473/24/1 474/37/1 475/27/1 476/25/1
f 477/37/1 478/38/1 479/34/1 480/27/1
f 481/14/1 482/23/1 483/26/1 484/15/1
f 485/24/1 486/37/1 487/27/1 488/25/1
f 489/37/1 490/38/1 491/34/1 492/27/1
f 493/10/1 494/11/1 495/5/1 496/2/1
f 497/10/1 498/11/1 499/5/1 500/2/1
f 501/10/1 502/11/1 503/5/1 504/2/1
f 505/10/1 506/11/1 507/5/1 508/2/1
f 509/11/1 510/12/1 511/7/1 512/5/1
f 513/9/1 514/10/1 515/2/1 516/1/1
f 517/10/1 518/11/1 519/5/1 520/2/1
f 521/10/1 522/11/1 523/5/1 524/2/1
f 525/10/1 526/11/1 527/5/1 528/2/1
f 529/10/1 530/11/1 531/5/1 532/2/1
f 533/10/1 534/11/1 535/5/1 536/2/1
f 537/10/1 538/11/1 539/5/1 540/2/1
f 541/10/1 542/11/1 543/5/1 544/2/1
f 545/10/1 546/11/1 547/5/1 548/2/1
f 549/10/1 550/11/1 551/5/1 552/2/1
f 553/10/1 554/11/1 555/5/1 556/2/1
f 557/10/1 558/11/1 559/5/1 560/2/1
f 561/10/1 562/11/1 563/5/1 564/2/1
f 565/10/1 566/11/1 567/5/1 568/2/1
f 569/10/1 570/11/1 571/5/1 572/2/1
f 573/11/1 574/12/1 575/7/1 576/5/1
f 577/9/1 578/10/1 579/2/1 580/1/1
f 581/10/1 582/11/1 583/5/1 584/2/1
f 585/10/1 586/11/1 587/5/1 588/2/1
f 589/10/1 590/11/1 591/5/1 592/2/1
f 593/10/1 594/11/1 595/5/1 596/2/1
f 597/10/1 598/11/1 599/5/1 600/2/1
f 601/10/1 602/11/1 603/5/1 604/2/1
f 605/10/1 606/11/1 607/5/1 608/2/1
f 609/10/1 610/11/1 611/5/1 612/2/1
f 613/10/1 614/11/1 615/5/1 616/2/1
f 617/10/1 618/11/1 619/5/1 620/2/1
f 621/10/1 622/11/1 623/5/1 624/2/1
f 625/10/1 626/11/1 627/5/1 628/2/1
f 629/10/1 630/11/1 631/5/1 632/2/1
f 633/10/1 634/11/1 635/5/1 636/2/1
f 637/11/1 638/12/1 639/7/1 640/5/1
f 641/39/1 642/40/1 643/10/1 644/9/1
f 645/40/1 646/41/1 647/11/1 648/10/1
f 649/40/1 650/41/1 651/11/1 652/10/1
f 653/40/1 654/41/1 655/11/1 656/10/1
f 657/40/1 658/41/1 659/11/1 660/10/1
f 661/40/1 662/41/1 663/11/1 664/10/1
f 665/40/1 666/41/1 667/11/1 668/10/1
f 669/40/1 670/41/1 671/11/1 672/10/1
f 673/40/1 674/41/1 675/11/1 676/10/1
f 677/40/1 678/41/1 679/11/1 680/10/1
f 681/40/1 682/41/1 683/11/1 684/10/1
f 685/40/1 686/41/1 687/11/1 688/10/1
f 689/40/1 690/41/1 691/11/1 692/10/1
f 693/40/1 694/41/1 695/11/1 696/10/1
f 697/40/1 698/41/1 699/11/1 700/10/1
f 701/41/1 702/42/1 703/12/1 704/11/1

