# Tiled2Unity generated file. Do not modify by hand.
# Wavefront file for 'lab2_mesh_0003.obj'

# Vertices (Count = 16)
v -192 -160 0
v -208 -160 0
v -208 -144 0
v -192 -144 0
v -208 -160 0
v -224 -160 0
v -224 -144 0
v -208 -144 0
v -176 -176 0
v -192 -176 0
v -192 -160 0
v -176 -160 0
v -192 -176 0
v -208 -176 0
v -208 -160 0
v -192 -160 0

# Texture cooridinates (Count = 4)
vt 0.8 0.2
vt 0.9 0.2
vt 0.9 0.3
vt 0.8 0.3

# Normal
vn 0 0 -1

# Mesh description
g lab2_mesh_0003

# Faces
f 1/1/1 2/2/1 3/3/1 4/4/1
f 5/1/1 6/2/1 7/3/1 8/4/1
f 9/1/1 10/2/1 11/3/1 12/4/1
f 13/1/1 14/2/1 15/3/1 16/4/1

