# Tiled2Unity generated file. Do not modify by hand.
# Wavefront file for 'lab2_mesh_0001.obj'

# Vertices (Count = 672)
v 0 -16 0
v -16 -16 0
v -16 0 0
v 0 0 0
v -16 -16 0
v -32 -16 0
v -32 0 0
v -16 0 0
v -32 -16 0
v -48 -16 0
v -48 0 0
v -32 0 0
v -48 -16 0
v -64 -16 0
v -64 0 0
v -48 0 0
v -64 -16 0
v -80 -16 0
v -80 0 0
v -64 0 0
v -80 -16 0
v -96 -16 0
v -96 0 0
v -80 0 0
v -96 -16 0
v -112 -16 0
v -112 0 0
v -96 0 0
v -144 -16 0
v -160 -16 0
v -160 0 0
v -144 0 0
v -160 -16 0
v -176 -16 0
v -176 0 0
v -160 0 0
v -176 -16 0
v -192 -16 0
v -192 0 0
v -176 0 0
v -192 -16 0
v -208 -16 0
v -208 0 0
v -192 0 0
v -208 -16 0
v -224 -16 0
v -224 0 0
v -208 0 0
v -224 -16 0
v -240 -16 0
v -240 0 0
v -224 0 0
v -240 -16 0
v -256 -16 0
v -256 0 0
v -240 0 0
v 0 -32 0
v -16 -32 0
v -16 -16 0
v 0 -16 0
v -16 -32 0
v -32 -32 0
v -32 -16 0
v -16 -16 0
v -32 -32 0
v -48 -32 0
v -48 -16 0
v -32 -16 0
v -48 -32 0
v -64 -32 0
v -64 -16 0
v -48 -16 0
v -64 -32 0
v -80 -32 0
v -80 -16 0
v -64 -16 0
v -80 -32 0
v -96 -32 0
v -96 -16 0
v -80 -16 0
v -96 -32 0
v -112 -32 0
v -112 -16 0
v -96 -16 0
v -112 -32 0
v -128 -32 0
v -128 -16 0
v -112 -16 0
v -128 -32 0
v -144 -32 0
v -144 -16 0
v -128 -16 0
v -144 -32 0
v -160 -32 0
v -160 -16 0
v -144 -16 0
v -160 -32 0
v -176 -32 0
v -176 -16 0
v -160 -16 0
v -176 -32 0
v -192 -32 0
v -192 -16 0
v -176 -16 0
v -192 -32 0
v -208 -32 0
v -208 -16 0
v -192 -16 0
v -208 -32 0
v -224 -32 0
v -224 -16 0
v -208 -16 0
v -224 -32 0
v -240 -32 0
v -240 -16 0
v -224 -16 0
v -240 -32 0
v -256 -32 0
v -256 -16 0
v -240 -16 0
v 0 -48 0
v -16 -48 0
v -16 -32 0
v 0 -32 0
v -16 -48 0
v -32 -48 0
v -32 -32 0
v -16 -32 0
v -32 -48 0
v -48 -48 0
v -48 -32 0
v -32 -32 0
v -48 -48 0
v -64 -48 0
v -64 -32 0
v -48 -32 0
v -64 -48 0
v -80 -48 0
v -80 -32 0
v -64 -32 0
v -80 -48 0
v -96 -48 0
v -96 -32 0
v -80 -32 0
v -96 -48 0
v -112 -48 0
v -112 -32 0
v -96 -32 0
v -112 -48 0
v -128 -48 0
v -128 -32 0
v -112 -32 0
v -128 -48 0
v -144 -48 0
v -144 -32 0
v -128 -32 0
v -144 -48 0
v -160 -48 0
v -160 -32 0
v -144 -32 0
v -160 -48 0
v -176 -48 0
v -176 -32 0
v -160 -32 0
v -176 -48 0
v -192 -48 0
v -192 -32 0
v -176 -32 0
v -192 -48 0
v -208 -48 0
v -208 -32 0
v -192 -32 0
v -208 -48 0
v -224 -48 0
v -224 -32 0
v -208 -32 0
v -224 -48 0
v -240 -48 0
v -240 -32 0
v -224 -32 0
v -240 -48 0
v -256 -48 0
v -256 -32 0
v -240 -32 0
v 0 -64 0
v -16 -64 0
v -16 -48 0
v 0 -48 0
v -16 -64 0
v -32 -64 0
v -32 -48 0
v -16 -48 0
v -32 -64 0
v -48 -64 0
v -48 -48 0
v -32 -48 0
v -48 -64 0
v -64 -64 0
v -64 -48 0
v -48 -48 0
v -64 -64 0
v -80 -64 0
v -80 -48 0
v -64 -48 0
v -80 -64 0
v -96 -64 0
v -96 -48 0
v -80 -48 0
v -96 -64 0
v -112 -64 0
v -112 -48 0
v -96 -48 0
v -112 -64 0
v -128 -64 0
v -128 -48 0
v -112 -48 0
v -128 -64 0
v -144 -64 0
v -144 -48 0
v -128 -48 0
v -144 -64 0
v -160 -64 0
v -160 -48 0
v -144 -48 0
v -160 -64 0
v -176 -64 0
v -176 -48 0
v -160 -48 0
v -176 -64 0
v -192 -64 0
v -192 -48 0
v -176 -48 0
v -192 -64 0
v -208 -64 0
v -208 -48 0
v -192 -48 0
v -208 -64 0
v -224 -64 0
v -224 -48 0
v -208 -48 0
v -224 -64 0
v -240 -64 0
v -240 -48 0
v -224 -48 0
v -240 -64 0
v -256 -64 0
v -256 -48 0
v -240 -48 0
v -16 -80 0
v -32 -80 0
v -32 -64 0
v -16 -64 0
v -32 -80 0
v -48 -80 0
v -48 -64 0
v -32 -64 0
v -48 -80 0
v -64 -80 0
v -64 -64 0
v -48 -64 0
v -64 -80 0
v -80 -80 0
v -80 -64 0
v -64 -64 0
v -80 -80 0
v -96 -80 0
v -96 -64 0
v -80 -64 0
v -96 -80 0
v -112 -80 0
v -112 -64 0
v -96 -64 0
v -112 -80 0
v -128 -80 0
v -128 -64 0
v -112 -64 0
v -128 -80 0
v -144 -80 0
v -144 -64 0
v -128 -64 0
v -144 -80 0
v -160 -80 0
v -160 -64 0
v -144 -64 0
v -160 -80 0
v -176 -80 0
v -176 -64 0
v -160 -64 0
v -176 -80 0
v -192 -80 0
v -192 -64 0
v -176 -64 0
v -192 -80 0
v -208 -80 0
v -208 -64 0
v -192 -64 0
v -208 -80 0
v -224 -80 0
v -224 -64 0
v -208 -64 0
v -224 -80 0
v -240 -80 0
v -240 -64 0
v -224 -64 0
v -16 -96 0
v -32 -96 0
v -32 -80 0
v -16 -80 0
v -32 -96 0
v -48 -96 0
v -48 -80 0
v -32 -80 0
v -48 -96 0
v -64 -96 0
v -64 -80 0
v -48 -80 0
v -64 -96 0
v -80 -96 0
v -80 -80 0
v -64 -80 0
v -80 -96 0
v -96 -96 0
v -96 -80 0
v -80 -80 0
v -96 -96 0
v -112 -96 0
v -112 -80 0
v -96 -80 0
v -112 -96 0
v -128 -96 0
v -128 -80 0
v -112 -80 0
v -128 -96 0
v -144 -96 0
v -144 -80 0
v -128 -80 0
v -144 -96 0
v -160 -96 0
v -160 -80 0
v -144 -80 0
v -160 -96 0
v -176 -96 0
v -176 -80 0
v -160 -80 0
v -176 -96 0
v -192 -96 0
v -192 -80 0
v -176 -80 0
v -192 -96 0
v -208 -96 0
v -208 -80 0
v -192 -80 0
v -208 -96 0
v -224 -96 0
v -224 -80 0
v -208 -80 0
v -224 -96 0
v -240 -96 0
v -240 -80 0
v -224 -80 0
v 0 -112 0
v -16 -112 0
v -16 -96 0
v 0 -96 0
v -16 -112 0
v -32 -112 0
v -32 -96 0
v -16 -96 0
v -32 -112 0
v -48 -112 0
v -48 -96 0
v -32 -96 0
v -48 -112 0
v -64 -112 0
v -64 -96 0
v -48 -96 0
v -64 -112 0
v -80 -112 0
v -80 -96 0
v -64 -96 0
v -80 -112 0
v -96 -112 0
v -96 -96 0
v -80 -96 0
v -96 -112 0
v -112 -112 0
v -112 -96 0
v -96 -96 0
v -112 -112 0
v -128 -112 0
v -128 -96 0
v -112 -96 0
v -128 -112 0
v -144 -112 0
v -144 -96 0
v -128 -96 0
v -144 -112 0
v -160 -112 0
v -160 -96 0
v -144 -96 0
v -160 -112 0
v -176 -112 0
v -176 -96 0
v -160 -96 0
v -176 -112 0
v -192 -112 0
v -192 -96 0
v -176 -96 0
v -192 -112 0
v -208 -112 0
v -208 -96 0
v -192 -96 0
v -208 -112 0
v -224 -112 0
v -224 -96 0
v -208 -96 0
v -224 -112 0
v -240 -112 0
v -240 -96 0
v -224 -96 0
v -240 -112 0
v -256 -112 0
v -256 -96 0
v -240 -96 0
v 0 -128 0
v -16 -128 0
v -16 -112 0
v 0 -112 0
v -16 -128 0
v -32 -128 0
v -32 -112 0
v -16 -112 0
v -32 -128 0
v -48 -128 0
v -48 -112 0
v -32 -112 0
v -48 -128 0
v -64 -128 0
v -64 -112 0
v -48 -112 0
v -64 -128 0
v -80 -128 0
v -80 -112 0
v -64 -112 0
v -80 -128 0
v -96 -128 0
v -96 -112 0
v -80 -112 0
v -96 -128 0
v -112 -128 0
v -112 -112 0
v -96 -112 0
v -112 -128 0
v -128 -128 0
v -128 -112 0
v -112 -112 0
v -128 -128 0
v -144 -128 0
v -144 -112 0
v -128 -112 0
v -144 -128 0
v -160 -128 0
v -160 -112 0
v -144 -112 0
v -160 -128 0
v -176 -128 0
v -176 -112 0
v -160 -112 0
v -176 -128 0
v -192 -128 0
v -192 -112 0
v -176 -112 0
v -192 -128 0
v -208 -128 0
v -208 -112 0
v -192 -112 0
v -208 -128 0
v -224 -128 0
v -224 -112 0
v -208 -112 0
v -224 -128 0
v -240 -128 0
v -240 -112 0
v -224 -112 0
v -240 -128 0
v -256 -128 0
v -256 -112 0
v -240 -112 0
v 0 -144 0
v -16 -144 0
v -16 -128 0
v 0 -128 0
v -16 -144 0
v -32 -144 0
v -32 -128 0
v -16 -128 0
v -32 -144 0
v -48 -144 0
v -48 -128 0
v -32 -128 0
v -48 -144 0
v -64 -144 0
v -64 -128 0
v -48 -128 0
v -64 -144 0
v -80 -144 0
v -80 -128 0
v -64 -128 0
v -80 -144 0
v -96 -144 0
v -96 -128 0
v -80 -128 0
v -96 -144 0
v -112 -144 0
v -112 -128 0
v -96 -128 0
v -112 -144 0
v -128 -144 0
v -128 -128 0
v -112 -128 0
v -128 -144 0
v -144 -144 0
v -144 -128 0
v -128 -128 0
v -144 -144 0
v -160 -144 0
v -160 -128 0
v -144 -128 0
v -160 -144 0
v -176 -144 0
v -176 -128 0
v -160 -128 0
v -176 -144 0
v -192 -144 0
v -192 -128 0
v -176 -128 0
v -192 -144 0
v -208 -144 0
v -208 -128 0
v -192 -128 0
v -208 -144 0
v -224 -144 0
v -224 -128 0
v -208 -128 0
v -224 -144 0
v -240 -144 0
v -240 -128 0
v -224 -128 0
v -240 -144 0
v -256 -144 0
v -256 -128 0
v -240 -128 0
v 0 -160 0
v -16 -160 0
v -16 -144 0
v 0 -144 0
v -16 -160 0
v -32 -160 0
v -32 -144 0
v -16 -144 0
v -32 -160 0
v -48 -160 0
v -48 -144 0
v -32 -144 0
v -48 -160 0
v -64 -160 0
v -64 -144 0
v -48 -144 0
v -64 -160 0
v -80 -160 0
v -80 -144 0
v -64 -144 0
v -80 -160 0
v -96 -160 0
v -96 -144 0
v -80 -144 0
v -96 -160 0
v -112 -160 0
v -112 -144 0
v -96 -144 0
v -112 -160 0
v -128 -160 0
v -128 -144 0
v -112 -144 0
v -128 -160 0
v -144 -160 0
v -144 -144 0
v -128 -144 0
v -144 -160 0
v -160 -160 0
v -160 -144 0
v -144 -144 0
v -160 -160 0
v -176 -160 0
v -176 -144 0
v -160 -144 0
v -176 -160 0
v -192 -160 0
v -192 -144 0
v -176 -144 0
v -192 -160 0
v -208 -160 0
v -208 -144 0
v -192 -144 0
v -208 -160 0
v -224 -160 0
v -224 -144 0
v -208 -144 0
v -224 -160 0
v -240 -160 0
v -240 -144 0
v -224 -144 0
v -240 -160 0
v -256 -160 0
v -256 -144 0
v -240 -144 0
v 0 -176 0
v -16 -176 0
v -16 -160 0
v 0 -160 0
v -16 -176 0
v -32 -176 0
v -32 -160 0
v -16 -160 0
v -32 -176 0
v -48 -176 0
v -48 -160 0
v -32 -160 0
v -48 -176 0
v -64 -176 0
v -64 -160 0
v -48 -160 0
v -64 -176 0
v -80 -176 0
v -80 -160 0
v -64 -160 0
v -80 -176 0
v -96 -176 0
v -96 -160 0
v -80 -160 0
v -96 -176 0
v -112 -176 0
v -112 -160 0
v -96 -160 0
v -144 -176 0
v -160 -176 0
v -160 -160 0
v -144 -160 0
v -160 -176 0
v -176 -176 0
v -176 -160 0
v -160 -160 0
v -176 -176 0
v -192 -176 0
v -192 -160 0
v -176 -160 0
v -192 -176 0
v -208 -176 0
v -208 -160 0
v -192 -160 0
v -208 -176 0
v -224 -176 0
v -224 -160 0
v -208 -160 0
v -224 -176 0
v -240 -176 0
v -240 -160 0
v -224 -160 0
v -240 -176 0
v -256 -176 0
v -256 -160 0
v -240 -160 0

# Texture cooridinates (Count = 42)
vt 0 0.9
vt 0.1 0.9
vt 0.1 1
vt 0 1
vt 0.2 0.9
vt 0.2 1
vt 0.3 0.9
vt 0.3 1
vt 0 0.8
vt 0.1 0.8
vt 0.2 0.8
vt 0.3 0.8
vt 0.5 0.5
vt 0.6 0.5
vt 0.6 0.6
vt 0.5 0.6
vt 0.9 0.7
vt 1 0.7
vt 1 0.8
vt 0.9 0.8
vt 0.4 0.5
vt 0.4 0.6
vt 0.7 0.5
vt 0.8 0.5
vt 0.8 0.6
vt 0.7 0.6
vt 0.9 0.6
vt 0.8 0.7
vt 0.2 0.4
vt 0.3 0.4
vt 0.3 0.5
vt 0.2 0.5
vt 0.4 0.4
vt 1 0.6
vt 0.3 0.6
vt 0.2 0.6
vt 0.9 0.5
vt 1 0.5
vt 0 0.7
vt 0.1 0.7
vt 0.2 0.7
vt 0.3 0.7

# Normal
vn 0 0 -1

# Mesh description
g lab2_mesh_0001

# Faces
f 1/1/1 2/2/1 3/3/1 4/4/1
f 5/2/1 6/5/1 7/6/1 8/3/1
f 9/2/1 10/5/1 11/6/1 12/3/1
f 13/2/1 14/5/1 15/6/1 16/3/1
f 17/2/1 18/5/1 19/6/1 20/3/1
f 21/2/1 22/5/1 23/6/1 24/3/1
f 25/2/1 26/5/1 27/6/1 28/3/1
f 29/2/1 30/5/1 31/6/1 32/3/1
f 33/2/1 34/5/1 35/6/1 36/3/1
f 37/2/1 38/5/1 39/6/1 40/3/1
f 41/2/1 42/5/1 43/6/1 44/3/1
f 45/2/1 46/5/1 47/6/1 48/3/1
f 49/2/1 50/5/1 51/6/1 52/3/1
f 53/5/1 54/7/1 55/8/1 56/6/1
f 57/9/1 58/10/1 59/2/1 60/1/1
f 61/10/1 62/11/1 63/5/1 64/2/1
f 65/10/1 66/11/1 67/5/1 68/2/1
f 69/10/1 70/11/1 71/5/1 72/2/1
f 73/10/1 74/11/1 75/5/1 76/2/1
f 77/10/1 78/11/1 79/5/1 80/2/1
f 81/10/1 82/11/1 83/5/1 84/2/1
f 85/10/1 86/11/1 87/5/1 88/2/1
f 89/10/1 90/11/1 91/5/1 92/2/1
f 93/10/1 94/11/1 95/5/1 96/2/1
f 97/10/1 98/11/1 99/5/1 100/2/1
f 101/10/1 102/11/1 103/5/1 104/2/1
f 105/10/1 106/11/1 107/5/1 108/2/1
f 109/10/1 110/11/1 111/5/1 112/2/1
f 113/10/1 114/11/1 115/5/1 116/2/1
f 117/11/1 118/12/1 119/7/1 120/5/1
f 121/9/1 122/10/1 123/2/1 124/1/1
f 125/10/1 126/11/1 127/5/1 128/2/1
f 129/10/1 130/11/1 131/5/1 132/2/1
f 133/10/1 134/11/1 135/5/1 136/2/1
f 137/10/1 138/11/1 139/5/1 140/2/1
f 141/13/1 142/14/1 143/15/1 144/16/1
f 145/17/1 146/18/1 147/19/1 148/20/1
f 149/21/1 150/13/1 151/16/1 152/22/1
f 153/13/1 154/14/1 155/15/1 156/16/1
f 157/17/1 158/18/1 159/19/1 160/20/1
f 161/21/1 162/13/1 163/16/1 164/22/1
f 165/10/1 166/11/1 167/5/1 168/2/1
f 169/10/1 170/11/1 171/5/1 172/2/1
f 173/10/1 174/11/1 175/5/1 176/2/1
f 177/10/1 178/11/1 179/5/1 180/2/1
f 181/11/1 182/12/1 183/7/1 184/5/1
f 185/9/1 186/10/1 187/2/1 188/1/1
f 189/10/1 190/11/1 191/5/1 192/2/1
f 193/10/1 194/11/1 195/5/1 196/2/1
f 197/10/1 198/11/1 199/5/1 200/2/1
f 201/10/1 202/11/1 203/5/1 204/2/1
f 205/23/1 206/24/1 207/25/1 208/26/1
f 209/25/1 210/27/1 211/17/1 212/28/1
f 213/29/1 214/30/1 215/31/1 216/32/1
f 217/30/1 218/33/1 219/21/1 220/31/1
f 221/25/1 222/27/1 223/17/1 224/28/1
f 225/27/1 226/34/1 227/18/1 228/17/1
f 229/10/1 230/11/1 231/5/1 232/2/1
f 233/10/1 234/11/1 235/5/1 236/2/1
f 237/10/1 238/11/1 239/5/1 240/2/1
f 241/10/1 242/11/1 243/5/1 244/2/1
f 245/11/1 246/12/1 247/7/1 248/5/1
f 249/10/1 250/11/1 251/5/1 252/2/1
f 253/10/1 254/11/1 255/5/1 256/2/1
f 257/10/1 258/11/1 259/5/1 260/2/1
f 261/10/1 262/11/1 263/5/1 264/2/1
f 265/14/1 266/23/1 267/26/1 268/15/1
f 269/31/1 270/21/1 271/22/1 272/35/1
f 273/25/1 274/27/1 275/17/1 276/28/1
f 277/25/1 278/27/1 279/17/1 280/28/1
f 281/32/1 282/31/1 283/35/1 284/36/1
f 285/37/1 286/38/1 287/34/1 288/27/1
f 289/10/1 290/11/1 291/5/1 292/2/1
f 293/10/1 294/11/1 295/5/1 296/2/1
f 297/10/1 298/11/1 299/5/1 300/2/1
f 301/10/1 302/11/1 303/5/1 304/2/1
f 305/10/1 306/11/1 307/5/1 308/2/1
f 309/10/1 310/11/1 311/5/1 312/2/1
f 313/10/1 314/11/1 315/5/1 316/2/1
f 317/10/1 318/11/1 319/5/1 320/2/1
f 321/13/1 322/14/1 323/15/1 324/16/1
f 325/30/1 326/33/1 327/21/1 328/31/1
f 329/25/1 330/27/1 331/17/1 332/28/1
f 333/25/1 334/27/1 335/17/1 336/28/1
f 337/29/1 338/30/1 339/31/1 340/32/1
f 341/21/1 342/13/1 343/16/1 344/22/1
f 345/10/1 346/11/1 347/5/1 348/2/1
f 349/10/1 350/11/1 351/5/1 352/2/1
f 353/10/1 354/11/1 355/5/1 356/2/1
f 357/10/1 358/11/1 359/5/1 360/2/1
f 361/9/1 362/10/1 363/2/1 364/1/1
f 365/10/1 366/11/1 367/5/1 368/2/1
f 369/10/1 370/11/1 371/5/1 372/2/1
f 373/10/1 374/11/1 375/5/1 376/2/1
f 377/10/1 378/11/1 379/5/1 380/2/1
f 381/23/1 382/24/1 383/25/1 384/26/1
f 385/25/1 386/27/1 387/17/1 388/28/1
f 389/32/1 390/31/1 391/35/1 392/36/1
f 393/31/1 394/21/1 395/22/1 396/35/1
f 397/25/1 398/27/1 399/17/1 400/28/1
f 401/27/1 402/34/1 403/18/1 404/17/1
f 405/10/1 406/11/1 407/5/1 408/2/1
f 409/10/1 410/11/1 411/5/1 412/2/1
f 413/10/1 414/11/1 415/5/1 416/2/1
f 417/10/1 418/11/1 419/5/1 420/2/1
f 421/11/1 422/12/1 423/7/1 424/5/1
f 425/9/1 426/10/1 427/2/1 428/1/1
f 429/10/1 430/11/1 431/5/1 432/2/1
f 433/10/1 434/11/1 435/5/1 436/2/1
f 437/10/1 438/11/1 439/5/1 440/2/1
f 441/10/1 442/11/1 443/5/1 444/2/1
f 445/14/1 446/23/1 447/26/1 448/15/1
f 449/24/1 450/37/1 451/27/1 452/25/1
f 453/37/1 454/38/1 455/34/1 456/27/1
f 457/14/1 458/23/1 459/26/1 460/15/1
f 461/24/1 462/37/1 463/27/1 464/25/1
f 465/37/1 466/38/1 467/34/1 468/27/1
f 469/10/1 470/11/1 471/5/1 472/2/1
f 473/10/1 474/11/1 475/5/1 476/2/1
f 477/10/1 478/11/1 479/5/1 480/2/1
f 481/10/1 482/11/1 483/5/1 484/2/1
f 485/11/1 486/12/1 487/7/1 488/5/1
f 489/9/1 490/10/1 491/2/1 492/1/1
f 493/10/1 494/11/1 495/5/1 496/2/1
f 497/10/1 498/11/1 499/5/1 500/2/1
f 501/10/1 502/11/1 503/5/1 504/2/1
f 505/10/1 506/11/1 507/5/1 508/2/1
f 509/10/1 510/11/1 511/5/1 512/2/1
f 513/10/1 514/11/1 515/5/1 516/2/1
f 517/10/1 518/11/1 519/5/1 520/2/1
f 521/10/1 522/11/1 523/5/1 524/2/1
f 525/10/1 526/11/1 527/5/1 528/2/1
f 529/10/1 530/11/1 531/5/1 532/2/1
f 533/10/1 534/11/1 535/5/1 536/2/1
f 537/10/1 538/11/1 539/5/1 540/2/1
f 541/10/1 542/11/1 543/5/1 544/2/1
f 545/10/1 546/11/1 547/5/1 548/2/1
f 549/11/1 550/12/1 551/7/1 552/5/1
f 553/9/1 554/10/1 555/2/1 556/1/1
f 557/10/1 558/11/1 559/5/1 560/2/1
f 561/10/1 562/11/1 563/5/1 564/2/1
f 565/10/1 566/11/1 567/5/1 568/2/1
f 569/10/1 570/11/1 571/5/1 572/2/1
f 573/10/1 574/11/1 575/5/1 576/2/1
f 577/10/1 578/11/1 579/5/1 580/2/1
f 581/10/1 582/11/1 583/5/1 584/2/1
f 585/10/1 586/11/1 587/5/1 588/2/1
f 589/10/1 590/11/1 591/5/1 592/2/1
f 593/10/1 594/11/1 595/5/1 596/2/1
f 597/10/1 598/11/1 599/5/1 600/2/1
f 601/10/1 602/11/1 603/5/1 604/2/1
f 605/10/1 606/11/1 607/5/1 608/2/1
f 609/10/1 610/11/1 611/5/1 612/2/1
f 613/11/1 614/12/1 615/7/1 616/5/1
f 617/39/1 618/40/1 619/10/1 620/9/1
f 621/40/1 622/41/1 623/11/1 624/10/1
f 625/40/1 626/41/1 627/11/1 628/10/1
f 629/40/1 630/41/1 631/11/1 632/10/1
f 633/40/1 634/41/1 635/11/1 636/10/1
f 637/40/1 638/41/1 639/11/1 640/10/1
f 641/40/1 642/41/1 643/11/1 644/10/1
f 645/40/1 646/41/1 647/11/1 648/10/1
f 649/40/1 650/41/1 651/11/1 652/10/1
f 653/40/1 654/41/1 655/11/1 656/10/1
f 657/40/1 658/41/1 659/11/1 660/10/1
f 661/40/1 662/41/1 663/11/1 664/10/1
f 665/40/1 666/41/1 667/11/1 668/10/1
f 669/41/1 670/42/1 671/12/1 672/11/1

