# Tiled2Unity generated file. Do not modify by hand.
# Wavefront file for 'lab5_mesh_0003.obj'

# Vertices (Count = 100)
v -176 -32 0
v -192 -32 0
v -192 -16 0
v -176 -16 0
v -176 -48 0
v -192 -48 0
v -192 -32 0
v -176 -32 0
v -80 -64 0
v -96 -64 0
v -96 -48 0
v -80 -48 0
v -96 -64 0
v -112 -64 0
v -112 -48 0
v -96 -48 0
v -176 -64 0
v -192 -64 0
v -192 -48 0
v -176 -48 0
v -96 -80 0
v -112 -80 0
v -112 -64 0
v -96 -64 0
v -176 -80 0
v -192 -80 0
v -192 -64 0
v -176 -64 0
v -96 -96 0
v -112 -96 0
v -112 -80 0
v -96 -80 0
v -176 -96 0
v -192 -96 0
v -192 -80 0
v -176 -80 0
v -96 -112 0
v -112 -112 0
v -112 -96 0
v -96 -96 0
v -176 -112 0
v -192 -112 0
v -192 -96 0
v -176 -96 0
v -80 -128 0
v -96 -128 0
v -96 -112 0
v -80 -112 0
v -96 -128 0
v -112 -128 0
v -112 -112 0
v -96 -112 0
v -176 -128 0
v -192 -128 0
v -192 -112 0
v -176 -112 0
v -192 -128 0
v -208 -128 0
v -208 -112 0
v -192 -112 0
v -208 -128 0
v -224 -128 0
v -224 -112 0
v -208 -112 0
v -16 -144 0
v -32 -144 0
v -32 -128 0
v -16 -128 0
v -32 -144 0
v -48 -144 0
v -48 -128 0
v -32 -128 0
v -176 -144 0
v -192 -144 0
v -192 -128 0
v -176 -128 0
v -32 -160 0
v -48 -160 0
v -48 -144 0
v -32 -144 0
v -48 -160 0
v -64 -160 0
v -64 -144 0
v -48 -144 0
v -64 -160 0
v -80 -160 0
v -80 -144 0
v -64 -144 0
v -80 -160 0
v -96 -160 0
v -96 -144 0
v -80 -144 0
v -96 -160 0
v -112 -160 0
v -112 -144 0
v -96 -144 0
v -176 -160 0
v -192 -160 0
v -192 -144 0
v -176 -144 0

# Texture cooridinates (Count = 8)
vt 0.9 0.4
vt 1 0.4
vt 1 0.5
vt 0.9 0.5
vt 0.1 0.8
vt 0.2 0.8
vt 0.2 0.9
vt 0.1 0.9

# Normal
vn 0 0 -1

# Mesh description
g lab5_mesh_0003

# Faces
f 1/1/1 2/2/1 3/3/1 4/4/1
f 5/5/1 6/6/1 7/7/1 8/8/1
f 9/1/1 10/2/1 11/3/1 12/4/1
f 13/5/1 14/6/1 15/7/1 16/8/1
f 17/5/1 18/6/1 19/7/1 20/8/1
f 21/5/1 22/6/1 23/7/1 24/8/1
f 25/5/1 26/6/1 27/7/1 28/8/1
f 29/5/1 30/6/1 31/7/1 32/8/1
f 33/5/1 34/6/1 35/7/1 36/8/1
f 37/5/1 38/6/1 39/7/1 40/8/1
f 41/5/1 42/6/1 43/7/1 44/8/1
f 45/1/1 46/2/1 47/3/1 48/4/1
f 49/5/1 50/6/1 51/7/1 52/8/1
f 53/5/1 54/6/1 55/7/1 56/8/1
f 57/5/1 58/6/1 59/7/1 60/8/1
f 61/1/1 62/2/1 63/3/1 64/4/1
f 65/1/1 66/2/1 67/3/1 68/4/1
f 69/5/1 70/6/1 71/7/1 72/8/1
f 73/5/1 74/6/1 75/7/1 76/8/1
f 77/5/1 78/6/1 79/7/1 80/8/1
f 81/5/1 82/6/1 83/7/1 84/8/1
f 85/5/1 86/6/1 87/7/1 88/8/1
f 89/5/1 90/6/1 91/7/1 92/8/1
f 93/5/1 94/6/1 95/7/1 96/8/1
f 97/5/1 98/6/1 99/7/1 100/8/1

