# Tiled2Unity generated file. Do not modify by hand.
# Wavefront file for 'obstLayer_mesh_0001.obj'

# Vertices (Count = 60)
v -64 -16 0
v -80 -16 0
v -80 0 0
v -64 0 0
v -176 -16 0
v -192 -16 0
v -192 0 0
v -176 0 0
v -32 -48 0
v -48 -48 0
v -48 -32 0
v -32 -32 0
v -48 -48 0
v -64 -48 0
v -64 -32 0
v -48 -32 0
v -192 -48 0
v -208 -48 0
v -208 -32 0
v -192 -32 0
v -32 -64 0
v -48 -64 0
v -48 -48 0
v -32 -48 0
v -192 -64 0
v -208 -64 0
v -208 -48 0
v -192 -48 0
v -208 -64 0
v -224 -64 0
v -224 -48 0
v -208 -48 0
v -192 -80 0
v -208 -80 0
v -208 -64 0
v -192 -64 0
v -32 -144 0
v -48 -144 0
v -48 -128 0
v -32 -128 0
v -208 -144 0
v -224 -144 0
v -224 -128 0
v -208 -128 0
v -32 -160 0
v -48 -160 0
v -48 -144 0
v -32 -144 0
v -208 -160 0
v -224 -160 0
v -224 -144 0
v -208 -144 0
v -112 -176 0
v -128 -176 0
v -128 -160 0
v -112 -160 0
v -128 -176 0
v -144 -176 0
v -144 -160 0
v -128 -160 0

# Texture cooridinates (Count = 18)
vt 0.3125 0.875
vt 0.375 0.875
vt 0.375 0.9375
vt 0.3125 0.9375
vt 0.4375 0.9375
vt 0.5 0.9375
vt 0.5 1
vt 0.4375 1
vt 0.125 0.8125
vt 0.1875 0.8125
vt 0.1875 0.875
vt 0.125 0.875
vt 0.125 0.75
vt 0.1875 0.75
vt 0.25 0.75
vt 0.25 0.8125
vt 0.3125 0.75
vt 0.3125 0.8125

# Normal
vn 0 0 -1

# Mesh description
g obstLayer_mesh_0001

# Faces
f 1/1/1 2/2/1 3/3/1 4/4/1
f 5/1/1 6/2/1 7/3/1 8/4/1
f 9/5/1 10/6/1 11/7/1 12/8/1
f 13/5/1 14/6/1 15/7/1 16/8/1
f 17/5/1 18/6/1 19/7/1 20/8/1
f 21/5/1 22/6/1 23/7/1 24/8/1
f 25/5/1 26/6/1 27/7/1 28/8/1
f 29/5/1 30/6/1 31/7/1 32/8/1
f 33/5/1 34/6/1 35/7/1 36/8/1
f 37/9/1 38/10/1 39/11/1 40/12/1
f 41/9/1 42/10/1 43/11/1 44/12/1
f 45/13/1 46/14/1 47/10/1 48/9/1
f 49/13/1 50/14/1 51/10/1 52/9/1
f 53/14/1 54/15/1 55/16/1 56/10/1
f 57/15/1 58/17/1 59/18/1 60/16/1

