# Tiled2Unity generated file. Do not modify by hand.
# Wavefront file for 'lab7_mesh_0001.obj'

# Vertices (Count = 672)
v 0 -16 0
v -16 -16 0
v -16 0 0
v 0 0 0
v -16 -16 0
v -32 -16 0
v -32 0 0
v -16 0 0
v -32 -16 0
v -48 -16 0
v -48 0 0
v -32 0 0
v -48 -16 0
v -64 -16 0
v -64 0 0
v -48 0 0
v -64 -16 0
v -80 -16 0
v -80 0 0
v -64 0 0
v -80 -16 0
v -96 -16 0
v -96 0 0
v -80 0 0
v -96 -16 0
v -112 -16 0
v -112 0 0
v -96 0 0
v -144 -16 0
v -160 -16 0
v -160 0 0
v -144 0 0
v -160 -16 0
v -176 -16 0
v -176 0 0
v -160 0 0
v -176 -16 0
v -192 -16 0
v -192 0 0
v -176 0 0
v -192 -16 0
v -208 -16 0
v -208 0 0
v -192 0 0
v -208 -16 0
v -224 -16 0
v -224 0 0
v -208 0 0
v -224 -16 0
v -240 -16 0
v -240 0 0
v -224 0 0
v -240 -16 0
v -256 -16 0
v -256 0 0
v -240 0 0
v 0 -32 0
v -16 -32 0
v -16 -16 0
v 0 -16 0
v -16 -32 0
v -32 -32 0
v -32 -16 0
v -16 -16 0
v -32 -32 0
v -48 -32 0
v -48 -16 0
v -32 -16 0
v -48 -32 0
v -64 -32 0
v -64 -16 0
v -48 -16 0
v -64 -32 0
v -80 -32 0
v -80 -16 0
v -64 -16 0
v -80 -32 0
v -96 -32 0
v -96 -16 0
v -80 -16 0
v -96 -32 0
v -112 -32 0
v -112 -16 0
v -96 -16 0
v -112 -32 0
v -128 -32 0
v -128 -16 0
v -112 -16 0
v -128 -32 0
v -144 -32 0
v -144 -16 0
v -128 -16 0
v -144 -32 0
v -160 -32 0
v -160 -16 0
v -144 -16 0
v -160 -32 0
v -176 -32 0
v -176 -16 0
v -160 -16 0
v -176 -32 0
v -192 -32 0
v -192 -16 0
v -176 -16 0
v -192 -32 0
v -208 -32 0
v -208 -16 0
v -192 -16 0
v -208 -32 0
v -224 -32 0
v -224 -16 0
v -208 -16 0
v -224 -32 0
v -240 -32 0
v -240 -16 0
v -224 -16 0
v -240 -32 0
v -256 -32 0
v -256 -16 0
v -240 -16 0
v 0 -48 0
v -16 -48 0
v -16 -32 0
v 0 -32 0
v -16 -48 0
v -32 -48 0
v -32 -32 0
v -16 -32 0
v -32 -48 0
v -48 -48 0
v -48 -32 0
v -32 -32 0
v -48 -48 0
v -64 -48 0
v -64 -32 0
v -48 -32 0
v -64 -48 0
v -80 -48 0
v -80 -32 0
v -64 -32 0
v -80 -48 0
v -96 -48 0
v -96 -32 0
v -80 -32 0
v -96 -48 0
v -112 -48 0
v -112 -32 0
v -96 -32 0
v -112 -48 0
v -128 -48 0
v -128 -32 0
v -112 -32 0
v -128 -48 0
v -144 -48 0
v -144 -32 0
v -128 -32 0
v -144 -48 0
v -160 -48 0
v -160 -32 0
v -144 -32 0
v -160 -48 0
v -176 -48 0
v -176 -32 0
v -160 -32 0
v -176 -48 0
v -192 -48 0
v -192 -32 0
v -176 -32 0
v -192 -48 0
v -208 -48 0
v -208 -32 0
v -192 -32 0
v -208 -48 0
v -224 -48 0
v -224 -32 0
v -208 -32 0
v -224 -48 0
v -240 -48 0
v -240 -32 0
v -224 -32 0
v -240 -48 0
v -256 -48 0
v -256 -32 0
v -240 -32 0
v 0 -64 0
v -16 -64 0
v -16 -48 0
v 0 -48 0
v -16 -64 0
v -32 -64 0
v -32 -48 0
v -16 -48 0
v -32 -64 0
v -48 -64 0
v -48 -48 0
v -32 -48 0
v -48 -64 0
v -64 -64 0
v -64 -48 0
v -48 -48 0
v -64 -64 0
v -80 -64 0
v -80 -48 0
v -64 -48 0
v -80 -64 0
v -96 -64 0
v -96 -48 0
v -80 -48 0
v -96 -64 0
v -112 -64 0
v -112 -48 0
v -96 -48 0
v -112 -64 0
v -128 -64 0
v -128 -48 0
v -112 -48 0
v -128 -64 0
v -144 -64 0
v -144 -48 0
v -128 -48 0
v -144 -64 0
v -160 -64 0
v -160 -48 0
v -144 -48 0
v -160 -64 0
v -176 -64 0
v -176 -48 0
v -160 -48 0
v -176 -64 0
v -192 -64 0
v -192 -48 0
v -176 -48 0
v -192 -64 0
v -208 -64 0
v -208 -48 0
v -192 -48 0
v -208 -64 0
v -224 -64 0
v -224 -48 0
v -208 -48 0
v -224 -64 0
v -240 -64 0
v -240 -48 0
v -224 -48 0
v -240 -64 0
v -256 -64 0
v -256 -48 0
v -240 -48 0
v -16 -80 0
v -32 -80 0
v -32 -64 0
v -16 -64 0
v -32 -80 0
v -48 -80 0
v -48 -64 0
v -32 -64 0
v -48 -80 0
v -64 -80 0
v -64 -64 0
v -48 -64 0
v -64 -80 0
v -80 -80 0
v -80 -64 0
v -64 -64 0
v -80 -80 0
v -96 -80 0
v -96 -64 0
v -80 -64 0
v -96 -80 0
v -112 -80 0
v -112 -64 0
v -96 -64 0
v -112 -80 0
v -128 -80 0
v -128 -64 0
v -112 -64 0
v -128 -80 0
v -144 -80 0
v -144 -64 0
v -128 -64 0
v -144 -80 0
v -160 -80 0
v -160 -64 0
v -144 -64 0
v -160 -80 0
v -176 -80 0
v -176 -64 0
v -160 -64 0
v -176 -80 0
v -192 -80 0
v -192 -64 0
v -176 -64 0
v -192 -80 0
v -208 -80 0
v -208 -64 0
v -192 -64 0
v -208 -80 0
v -224 -80 0
v -224 -64 0
v -208 -64 0
v -224 -80 0
v -240 -80 0
v -240 -64 0
v -224 -64 0
v -16 -96 0
v -32 -96 0
v -32 -80 0
v -16 -80 0
v -32 -96 0
v -48 -96 0
v -48 -80 0
v -32 -80 0
v -48 -96 0
v -64 -96 0
v -64 -80 0
v -48 -80 0
v -64 -96 0
v -80 -96 0
v -80 -80 0
v -64 -80 0
v -80 -96 0
v -96 -96 0
v -96 -80 0
v -80 -80 0
v -96 -96 0
v -112 -96 0
v -112 -80 0
v -96 -80 0
v -112 -96 0
v -128 -96 0
v -128 -80 0
v -112 -80 0
v -128 -96 0
v -144 -96 0
v -144 -80 0
v -128 -80 0
v -144 -96 0
v -160 -96 0
v -160 -80 0
v -144 -80 0
v -160 -96 0
v -176 -96 0
v -176 -80 0
v -160 -80 0
v -176 -96 0
v -192 -96 0
v -192 -80 0
v -176 -80 0
v -192 -96 0
v -208 -96 0
v -208 -80 0
v -192 -80 0
v -208 -96 0
v -224 -96 0
v -224 -80 0
v -208 -80 0
v -224 -96 0
v -240 -96 0
v -240 -80 0
v -224 -80 0
v 0 -112 0
v -16 -112 0
v -16 -96 0
v 0 -96 0
v -16 -112 0
v -32 -112 0
v -32 -96 0
v -16 -96 0
v -32 -112 0
v -48 -112 0
v -48 -96 0
v -32 -96 0
v -48 -112 0
v -64 -112 0
v -64 -96 0
v -48 -96 0
v -64 -112 0
v -80 -112 0
v -80 -96 0
v -64 -96 0
v -80 -112 0
v -96 -112 0
v -96 -96 0
v -80 -96 0
v -96 -112 0
v -112 -112 0
v -112 -96 0
v -96 -96 0
v -112 -112 0
v -128 -112 0
v -128 -96 0
v -112 -96 0
v -128 -112 0
v -144 -112 0
v -144 -96 0
v -128 -96 0
v -144 -112 0
v -160 -112 0
v -160 -96 0
v -144 -96 0
v -160 -112 0
v -176 -112 0
v -176 -96 0
v -160 -96 0
v -176 -112 0
v -192 -112 0
v -192 -96 0
v -176 -96 0
v -192 -112 0
v -208 -112 0
v -208 -96 0
v -192 -96 0
v -208 -112 0
v -224 -112 0
v -224 -96 0
v -208 -96 0
v -224 -112 0
v -240 -112 0
v -240 -96 0
v -224 -96 0
v -240 -112 0
v -256 -112 0
v -256 -96 0
v -240 -96 0
v 0 -128 0
v -16 -128 0
v -16 -112 0
v 0 -112 0
v -16 -128 0
v -32 -128 0
v -32 -112 0
v -16 -112 0
v -32 -128 0
v -48 -128 0
v -48 -112 0
v -32 -112 0
v -48 -128 0
v -64 -128 0
v -64 -112 0
v -48 -112 0
v -64 -128 0
v -80 -128 0
v -80 -112 0
v -64 -112 0
v -80 -128 0
v -96 -128 0
v -96 -112 0
v -80 -112 0
v -96 -128 0
v -112 -128 0
v -112 -112 0
v -96 -112 0
v -112 -128 0
v -128 -128 0
v -128 -112 0
v -112 -112 0
v -128 -128 0
v -144 -128 0
v -144 -112 0
v -128 -112 0
v -144 -128 0
v -160 -128 0
v -160 -112 0
v -144 -112 0
v -160 -128 0
v -176 -128 0
v -176 -112 0
v -160 -112 0
v -176 -128 0
v -192 -128 0
v -192 -112 0
v -176 -112 0
v -192 -128 0
v -208 -128 0
v -208 -112 0
v -192 -112 0
v -208 -128 0
v -224 -128 0
v -224 -112 0
v -208 -112 0
v -224 -128 0
v -240 -128 0
v -240 -112 0
v -224 -112 0
v -240 -128 0
v -256 -128 0
v -256 -112 0
v -240 -112 0
v 0 -144 0
v -16 -144 0
v -16 -128 0
v 0 -128 0
v -16 -144 0
v -32 -144 0
v -32 -128 0
v -16 -128 0
v -32 -144 0
v -48 -144 0
v -48 -128 0
v -32 -128 0
v -48 -144 0
v -64 -144 0
v -64 -128 0
v -48 -128 0
v -64 -144 0
v -80 -144 0
v -80 -128 0
v -64 -128 0
v -80 -144 0
v -96 -144 0
v -96 -128 0
v -80 -128 0
v -96 -144 0
v -112 -144 0
v -112 -128 0
v -96 -128 0
v -112 -144 0
v -128 -144 0
v -128 -128 0
v -112 -128 0
v -128 -144 0
v -144 -144 0
v -144 -128 0
v -128 -128 0
v -144 -144 0
v -160 -144 0
v -160 -128 0
v -144 -128 0
v -160 -144 0
v -176 -144 0
v -176 -128 0
v -160 -128 0
v -176 -144 0
v -192 -144 0
v -192 -128 0
v -176 -128 0
v -192 -144 0
v -208 -144 0
v -208 -128 0
v -192 -128 0
v -208 -144 0
v -224 -144 0
v -224 -128 0
v -208 -128 0
v -224 -144 0
v -240 -144 0
v -240 -128 0
v -224 -128 0
v -240 -144 0
v -256 -144 0
v -256 -128 0
v -240 -128 0
v 0 -160 0
v -16 -160 0
v -16 -144 0
v 0 -144 0
v -16 -160 0
v -32 -160 0
v -32 -144 0
v -16 -144 0
v -32 -160 0
v -48 -160 0
v -48 -144 0
v -32 -144 0
v -48 -160 0
v -64 -160 0
v -64 -144 0
v -48 -144 0
v -64 -160 0
v -80 -160 0
v -80 -144 0
v -64 -144 0
v -80 -160 0
v -96 -160 0
v -96 -144 0
v -80 -144 0
v -96 -160 0
v -112 -160 0
v -112 -144 0
v -96 -144 0
v -112 -160 0
v -128 -160 0
v -128 -144 0
v -112 -144 0
v -128 -160 0
v -144 -160 0
v -144 -144 0
v -128 -144 0
v -144 -160 0
v -160 -160 0
v -160 -144 0
v -144 -144 0
v -160 -160 0
v -176 -160 0
v -176 -144 0
v -160 -144 0
v -176 -160 0
v -192 -160 0
v -192 -144 0
v -176 -144 0
v -192 -160 0
v -208 -160 0
v -208 -144 0
v -192 -144 0
v -208 -160 0
v -224 -160 0
v -224 -144 0
v -208 -144 0
v -224 -160 0
v -240 -160 0
v -240 -144 0
v -224 -144 0
v -240 -160 0
v -256 -160 0
v -256 -144 0
v -240 -144 0
v 0 -176 0
v -16 -176 0
v -16 -160 0
v 0 -160 0
v -16 -176 0
v -32 -176 0
v -32 -160 0
v -16 -160 0
v -32 -176 0
v -48 -176 0
v -48 -160 0
v -32 -160 0
v -48 -176 0
v -64 -176 0
v -64 -160 0
v -48 -160 0
v -64 -176 0
v -80 -176 0
v -80 -160 0
v -64 -160 0
v -80 -176 0
v -96 -176 0
v -96 -160 0
v -80 -160 0
v -96 -176 0
v -112 -176 0
v -112 -160 0
v -96 -160 0
v -144 -176 0
v -160 -176 0
v -160 -160 0
v -144 -160 0
v -160 -176 0
v -176 -176 0
v -176 -160 0
v -160 -160 0
v -176 -176 0
v -192 -176 0
v -192 -160 0
v -176 -160 0
v -192 -176 0
v -208 -176 0
v -208 -160 0
v -192 -160 0
v -208 -176 0
v -224 -176 0
v -224 -160 0
v -208 -160 0
v -224 -176 0
v -240 -176 0
v -240 -160 0
v -224 -160 0
v -240 -176 0
v -256 -176 0
v -256 -160 0
v -240 -160 0

# Texture cooridinates (Count = 32)
vt 0 0.9
vt 0.1 0.9
vt 0.1 1
vt 0 1
vt 0.2 0.9
vt 0.2 1
vt 0.3 0.9
vt 0.3 1
vt 0 0.8
vt 0.1 0.8
vt 0.4 0.3
vt 0.5 0.3
vt 0.5 0.4
vt 0.4 0.4
vt 0.6 0.3
vt 0.6 0.4
vt 0.7 0.3
vt 0.7 0.4
vt 0.2 0.8
vt 0.3 0.8
vt 0.4 0.2
vt 0.5 0.2
vt 0.6 0.2
vt 0.7 0.2
vt 0.4 0.1
vt 0.5 0.1
vt 0.6 0.1
vt 0.7 0.1
vt 0 0.7
vt 0.1 0.7
vt 0.2 0.7
vt 0.3 0.7

# Normal
vn 0 0 -1

# Mesh description
g lab7_mesh_0001

# Faces
f 1/1/1 2/2/1 3/3/1 4/4/1
f 5/2/1 6/5/1 7/6/1 8/3/1
f 9/2/1 10/5/1 11/6/1 12/3/1
f 13/2/1 14/5/1 15/6/1 16/3/1
f 17/2/1 18/5/1 19/6/1 20/3/1
f 21/2/1 22/5/1 23/6/1 24/3/1
f 25/2/1 26/5/1 27/6/1 28/3/1
f 29/2/1 30/5/1 31/6/1 32/3/1
f 33/2/1 34/5/1 35/6/1 36/3/1
f 37/2/1 38/5/1 39/6/1 40/3/1
f 41/2/1 42/5/1 43/6/1 44/3/1
f 45/2/1 46/5/1 47/6/1 48/3/1
f 49/2/1 50/5/1 51/6/1 52/3/1
f 53/5/1 54/7/1 55/8/1 56/6/1
f 57/9/1 58/10/1 59/2/1 60/1/1
f 61/11/1 62/12/1 63/13/1 64/14/1
f 65/12/1 66/15/1 67/16/1 68/13/1
f 69/12/1 70/15/1 71/16/1 72/13/1
f 73/12/1 74/15/1 75/16/1 76/13/1
f 77/12/1 78/15/1 79/16/1 80/13/1
f 81/12/1 82/15/1 83/16/1 84/13/1
f 85/12/1 86/15/1 87/16/1 88/13/1
f 89/12/1 90/15/1 91/16/1 92/13/1
f 93/12/1 94/15/1 95/16/1 96/13/1
f 97/12/1 98/15/1 99/16/1 100/13/1
f 101/12/1 102/15/1 103/16/1 104/13/1
f 105/12/1 106/15/1 107/16/1 108/13/1
f 109/12/1 110/15/1 111/16/1 112/13/1
f 113/15/1 114/17/1 115/18/1 116/16/1
f 117/19/1 118/20/1 119/7/1 120/5/1
f 121/9/1 122/10/1 123/2/1 124/1/1
f 125/21/1 126/22/1 127/12/1 128/11/1
f 129/22/1 130/23/1 131/15/1 132/12/1
f 133/22/1 134/23/1 135/15/1 136/12/1
f 137/22/1 138/23/1 139/15/1 140/12/1
f 141/22/1 142/23/1 143/15/1 144/12/1
f 145/22/1 146/23/1 147/15/1 148/12/1
f 149/22/1 150/23/1 151/15/1 152/12/1
f 153/22/1 154/23/1 155/15/1 156/12/1
f 157/22/1 158/23/1 159/15/1 160/12/1
f 161/22/1 162/23/1 163/15/1 164/12/1
f 165/22/1 166/23/1 167/15/1 168/12/1
f 169/22/1 170/23/1 171/15/1 172/12/1
f 173/22/1 174/23/1 175/15/1 176/12/1
f 177/23/1 178/24/1 179/17/1 180/15/1
f 181/19/1 182/20/1 183/7/1 184/5/1
f 185/9/1 186/10/1 187/2/1 188/1/1
f 189/21/1 190/22/1 191/12/1 192/11/1
f 193/22/1 194/23/1 195/15/1 196/12/1
f 197/22/1 198/23/1 199/15/1 200/12/1
f 201/22/1 202/23/1 203/15/1 204/12/1
f 205/22/1 206/23/1 207/15/1 208/12/1
f 209/22/1 210/23/1 211/15/1 212/12/1
f 213/22/1 214/23/1 215/15/1 216/12/1
f 217/22/1 218/23/1 219/15/1 220/12/1
f 221/22/1 222/23/1 223/15/1 224/12/1
f 225/22/1 226/23/1 227/15/1 228/12/1
f 229/22/1 230/23/1 231/15/1 232/12/1
f 233/22/1 234/23/1 235/15/1 236/12/1
f 237/22/1 238/23/1 239/15/1 240/12/1
f 241/23/1 242/24/1 243/17/1 244/15/1
f 245/19/1 246/20/1 247/7/1 248/5/1
f 249/21/1 250/22/1 251/12/1 252/11/1
f 253/22/1 254/23/1 255/15/1 256/12/1
f 257/22/1 258/23/1 259/15/1 260/12/1
f 261/22/1 262/23/1 263/15/1 264/12/1
f 265/22/1 266/23/1 267/15/1 268/12/1
f 269/22/1 270/23/1 271/15/1 272/12/1
f 273/22/1 274/23/1 275/15/1 276/12/1
f 277/22/1 278/23/1 279/15/1 280/12/1
f 281/22/1 282/23/1 283/15/1 284/12/1
f 285/22/1 286/23/1 287/15/1 288/12/1
f 289/22/1 290/23/1 291/15/1 292/12/1
f 293/22/1 294/23/1 295/15/1 296/12/1
f 297/22/1 298/23/1 299/15/1 300/12/1
f 301/23/1 302/24/1 303/17/1 304/15/1
f 305/21/1 306/22/1 307/12/1 308/11/1
f 309/22/1 310/23/1 311/15/1 312/12/1
f 313/22/1 314/23/1 315/15/1 316/12/1
f 317/22/1 318/23/1 319/15/1 320/12/1
f 321/22/1 322/23/1 323/15/1 324/12/1
f 325/22/1 326/23/1 327/15/1 328/12/1
f 329/22/1 330/23/1 331/15/1 332/12/1
f 333/22/1 334/23/1 335/15/1 336/12/1
f 337/22/1 338/23/1 339/15/1 340/12/1
f 341/22/1 342/23/1 343/15/1 344/12/1
f 345/22/1 346/23/1 347/15/1 348/12/1
f 349/22/1 350/23/1 351/15/1 352/12/1
f 353/22/1 354/23/1 355/15/1 356/12/1
f 357/23/1 358/24/1 359/17/1 360/15/1
f 361/9/1 362/10/1 363/2/1 364/1/1
f 365/21/1 366/22/1 367/12/1 368/11/1
f 369/22/1 370/23/1 371/15/1 372/12/1
f 373/22/1 374/23/1 375/15/1 376/12/1
f 377/22/1 378/23/1 379/15/1 380/12/1
f 381/22/1 382/23/1 383/15/1 384/12/1
f 385/22/1 386/23/1 387/15/1 388/12/1
f 389/22/1 390/23/1 391/15/1 392/12/1
f 393/22/1 394/23/1 395/15/1 396/12/1
f 397/22/1 398/23/1 399/15/1 400/12/1
f 401/22/1 402/23/1 403/15/1 404/12/1
f 405/22/1 406/23/1 407/15/1 408/12/1
f 409/22/1 410/23/1 411/15/1 412/12/1
f 413/22/1 414/23/1 415/15/1 416/12/1
f 417/23/1 418/24/1 419/17/1 420/15/1
f 421/19/1 422/20/1 423/7/1 424/5/1
f 425/9/1 426/10/1 427/2/1 428/1/1
f 429/21/1 430/22/1 431/12/1 432/11/1
f 433/22/1 434/23/1 435/15/1 436/12/1
f 437/22/1 438/23/1 439/15/1 440/12/1
f 441/22/1 442/23/1 443/15/1 444/12/1
f 445/22/1 446/23/1 447/15/1 448/12/1
f 449/22/1 450/23/1 451/15/1 452/12/1
f 453/22/1 454/23/1 455/15/1 456/12/1
f 457/22/1 458/23/1 459/15/1 460/12/1
f 461/22/1 462/23/1 463/15/1 464/12/1
f 465/22/1 466/23/1 467/15/1 468/12/1
f 469/22/1 470/23/1 471/15/1 472/12/1
f 473/22/1 474/23/1 475/15/1 476/12/1
f 477/22/1 478/23/1 479/15/1 480/12/1
f 481/23/1 482/24/1 483/17/1 484/15/1
f 485/19/1 486/20/1 487/7/1 488/5/1
f 489/9/1 490/10/1 491/2/1 492/1/1
f 493/21/1 494/22/1 495/12/1 496/11/1
f 497/22/1 498/23/1 499/15/1 500/12/1
f 501/22/1 502/23/1 503/15/1 504/12/1
f 505/22/1 506/23/1 507/15/1 508/12/1
f 509/22/1 510/23/1 511/15/1 512/12/1
f 513/22/1 514/23/1 515/15/1 516/12/1
f 517/22/1 518/23/1 519/15/1 520/12/1
f 521/22/1 522/23/1 523/15/1 524/12/1
f 525/22/1 526/23/1 527/15/1 528/12/1
f 529/22/1 530/23/1 531/15/1 532/12/1
f 533/22/1 534/23/1 535/15/1 536/12/1
f 537/22/1 538/23/1 539/15/1 540/12/1
f 541/22/1 542/23/1 543/15/1 544/12/1
f 545/23/1 546/24/1 547/17/1 548/15/1
f 549/19/1 550/20/1 551/7/1 552/5/1
f 553/9/1 554/10/1 555/2/1 556/1/1
f 557/25/1 558/26/1 559/22/1 560/21/1
f 561/26/1 562/27/1 563/23/1 564/22/1
f 565/26/1 566/27/1 567/23/1 568/22/1
f 569/26/1 570/27/1 571/23/1 572/22/1
f 573/26/1 574/27/1 575/23/1 576/22/1
f 577/26/1 578/27/1 579/23/1 580/22/1
f 581/26/1 582/27/1 583/23/1 584/22/1
f 585/26/1 586/27/1 587/23/1 588/22/1
f 589/26/1 590/27/1 591/23/1 592/22/1
f 593/26/1 594/27/1 595/23/1 596/22/1
f 597/26/1 598/27/1 599/23/1 600/22/1
f 601/26/1 602/27/1 603/23/1 604/22/1
f 605/26/1 606/27/1 607/23/1 608/22/1
f 609/27/1 610/28/1 611/24/1 612/23/1
f 613/19/1 614/20/1 615/7/1 616/5/1
f 617/29/1 618/30/1 619/10/1 620/9/1
f 621/30/1 622/31/1 623/19/1 624/10/1
f 625/30/1 626/31/1 627/19/1 628/10/1
f 629/30/1 630/31/1 631/19/1 632/10/1
f 633/30/1 634/31/1 635/19/1 636/10/1
f 637/30/1 638/31/1 639/19/1 640/10/1
f 641/30/1 642/31/1 643/19/1 644/10/1
f 645/30/1 646/31/1 647/19/1 648/10/1
f 649/30/1 650/31/1 651/19/1 652/10/1
f 653/30/1 654/31/1 655/19/1 656/10/1
f 657/30/1 658/31/1 659/19/1 660/10/1
f 661/30/1 662/31/1 663/19/1 664/10/1
f 665/30/1 666/31/1 667/19/1 668/10/1
f 669/31/1 670/32/1 671/20/1 672/19/1

