# Tiled2Unity generated file. Do not modify by hand.
# Wavefront file for 'lab6_mesh_0011.obj'

# Vertices (Count = 32)
v -16 -64 0
v -32 -64 0
v -32 -48 0
v -16 -48 0
v 0 -80 0
v -16 -80 0
v -16 -64 0
v 0 -64 0
v -16 -80 0
v -32 -80 0
v -32 -64 0
v -16 -64 0
v -32 -80 0
v -48 -80 0
v -48 -64 0
v -32 -64 0
v 0 -96 0
v -16 -96 0
v -16 -80 0
v 0 -80 0
v -16 -96 0
v -32 -96 0
v -32 -80 0
v -16 -80 0
v -32 -96 0
v -48 -96 0
v -48 -80 0
v -32 -80 0
v -16 -112 0
v -32 -112 0
v -32 -96 0
v -16 -96 0

# Texture cooridinates (Count = 8)
vt 0.6 0.9
vt 0.7 0.9
vt 0.7 1
vt 0.6 1
vt 0 0.8
vt 0.1 0.8
vt 0.1 0.9
vt 0 0.9

# Normal
vn 0 0 -1

# Mesh description
g lab6_mesh_0011

# Faces
f 1/1/1 2/2/1 3/3/1 4/4/1
f 5/5/1 6/6/1 7/7/1 8/8/1
f 9/1/1 10/2/1 11/3/1 12/4/1
f 13/1/1 14/2/1 15/3/1 16/4/1
f 17/5/1 18/6/1 19/7/1 20/8/1
f 21/1/1 22/2/1 23/3/1 24/4/1
f 25/1/1 26/2/1 27/3/1 28/4/1
f 29/1/1 30/2/1 31/3/1 32/4/1

