# Tiled2Unity generated file. Do not modify by hand.
# Wavefront file for 'cave5_mesh_0012.obj'

# Vertices (Count = 16)
v -112 -160 0
v -128 -160 0
v -128 -144 0
v -112 -144 0
v -128 -160 0
v -144 -160 0
v -144 -144 0
v -128 -144 0
v -112 -176 0
v -128 -176 0
v -128 -160 0
v -112 -160 0
v -128 -176 0
v -144 -176 0
v -144 -160 0
v -128 -160 0

# Texture cooridinates (Count = 8)
vt 0.625 0.9375
vt 0.6875 0.9375
vt 0.6875 1
vt 0.625 1
vt 0 0.875
vt 0.0625 0.875
vt 0.0625 0.9375
vt 0 0.9375

# Normal
vn 0 0 -1

# Mesh description
g cave5_mesh_0012

# Faces
f 1/1/1 2/2/1 3/3/1 4/4/1
f 5/1/1 6/2/1 7/3/1 8/4/1
f 9/5/1 10/6/1 11/7/1 12/8/1
f 13/5/1 14/6/1 15/7/1 16/8/1

