# Tiled2Unity generated file. Do not modify by hand.
# Wavefront file for 'lab4_mesh_0001.obj'

# Vertices (Count = 704)
v 0 -16 0
v -16 -16 0
v -16 0 0
v 0 0 0
v -16 -16 0
v -32 -16 0
v -32 0 0
v -16 0 0
v -32 -16 0
v -48 -16 0
v -48 0 0
v -32 0 0
v -48 -16 0
v -64 -16 0
v -64 0 0
v -48 0 0
v -64 -16 0
v -80 -16 0
v -80 0 0
v -64 0 0
v -80 -16 0
v -96 -16 0
v -96 0 0
v -80 0 0
v -96 -16 0
v -112 -16 0
v -112 0 0
v -96 0 0
v -112 -16 0
v -128 -16 0
v -128 0 0
v -112 0 0
v -128 -16 0
v -144 -16 0
v -144 0 0
v -128 0 0
v -144 -16 0
v -160 -16 0
v -160 0 0
v -144 0 0
v -160 -16 0
v -176 -16 0
v -176 0 0
v -160 0 0
v -176 -16 0
v -192 -16 0
v -192 0 0
v -176 0 0
v -192 -16 0
v -208 -16 0
v -208 0 0
v -192 0 0
v -208 -16 0
v -224 -16 0
v -224 0 0
v -208 0 0
v -224 -16 0
v -240 -16 0
v -240 0 0
v -224 0 0
v -240 -16 0
v -256 -16 0
v -256 0 0
v -240 0 0
v 0 -32 0
v -16 -32 0
v -16 -16 0
v 0 -16 0
v -16 -32 0
v -32 -32 0
v -32 -16 0
v -16 -16 0
v -32 -32 0
v -48 -32 0
v -48 -16 0
v -32 -16 0
v -48 -32 0
v -64 -32 0
v -64 -16 0
v -48 -16 0
v -64 -32 0
v -80 -32 0
v -80 -16 0
v -64 -16 0
v -80 -32 0
v -96 -32 0
v -96 -16 0
v -80 -16 0
v -96 -32 0
v -112 -32 0
v -112 -16 0
v -96 -16 0
v -112 -32 0
v -128 -32 0
v -128 -16 0
v -112 -16 0
v -128 -32 0
v -144 -32 0
v -144 -16 0
v -128 -16 0
v -144 -32 0
v -160 -32 0
v -160 -16 0
v -144 -16 0
v -160 -32 0
v -176 -32 0
v -176 -16 0
v -160 -16 0
v -176 -32 0
v -192 -32 0
v -192 -16 0
v -176 -16 0
v -192 -32 0
v -208 -32 0
v -208 -16 0
v -192 -16 0
v -208 -32 0
v -224 -32 0
v -224 -16 0
v -208 -16 0
v -224 -32 0
v -240 -32 0
v -240 -16 0
v -224 -16 0
v -240 -32 0
v -256 -32 0
v -256 -16 0
v -240 -16 0
v 0 -48 0
v -16 -48 0
v -16 -32 0
v 0 -32 0
v -16 -48 0
v -32 -48 0
v -32 -32 0
v -16 -32 0
v -32 -48 0
v -48 -48 0
v -48 -32 0
v -32 -32 0
v -48 -48 0
v -64 -48 0
v -64 -32 0
v -48 -32 0
v -64 -48 0
v -80 -48 0
v -80 -32 0
v -64 -32 0
v -80 -48 0
v -96 -48 0
v -96 -32 0
v -80 -32 0
v -96 -48 0
v -112 -48 0
v -112 -32 0
v -96 -32 0
v -112 -48 0
v -128 -48 0
v -128 -32 0
v -112 -32 0
v -128 -48 0
v -144 -48 0
v -144 -32 0
v -128 -32 0
v -144 -48 0
v -160 -48 0
v -160 -32 0
v -144 -32 0
v -160 -48 0
v -176 -48 0
v -176 -32 0
v -160 -32 0
v -176 -48 0
v -192 -48 0
v -192 -32 0
v -176 -32 0
v -192 -48 0
v -208 -48 0
v -208 -32 0
v -192 -32 0
v -208 -48 0
v -224 -48 0
v -224 -32 0
v -208 -32 0
v -224 -48 0
v -240 -48 0
v -240 -32 0
v -224 -32 0
v -240 -48 0
v -256 -48 0
v -256 -32 0
v -240 -32 0
v 0 -64 0
v -16 -64 0
v -16 -48 0
v 0 -48 0
v -16 -64 0
v -32 -64 0
v -32 -48 0
v -16 -48 0
v -32 -64 0
v -48 -64 0
v -48 -48 0
v -32 -48 0
v -48 -64 0
v -64 -64 0
v -64 -48 0
v -48 -48 0
v -64 -64 0
v -80 -64 0
v -80 -48 0
v -64 -48 0
v -80 -64 0
v -96 -64 0
v -96 -48 0
v -80 -48 0
v -96 -64 0
v -112 -64 0
v -112 -48 0
v -96 -48 0
v -112 -64 0
v -128 -64 0
v -128 -48 0
v -112 -48 0
v -128 -64 0
v -144 -64 0
v -144 -48 0
v -128 -48 0
v -144 -64 0
v -160 -64 0
v -160 -48 0
v -144 -48 0
v -160 -64 0
v -176 -64 0
v -176 -48 0
v -160 -48 0
v -176 -64 0
v -192 -64 0
v -192 -48 0
v -176 -48 0
v -192 -64 0
v -208 -64 0
v -208 -48 0
v -192 -48 0
v -208 -64 0
v -224 -64 0
v -224 -48 0
v -208 -48 0
v -224 -64 0
v -240 -64 0
v -240 -48 0
v -224 -48 0
v -240 -64 0
v -256 -64 0
v -256 -48 0
v -240 -48 0
v 0 -80 0
v -16 -80 0
v -16 -64 0
v 0 -64 0
v -16 -80 0
v -32 -80 0
v -32 -64 0
v -16 -64 0
v -32 -80 0
v -48 -80 0
v -48 -64 0
v -32 -64 0
v -48 -80 0
v -64 -80 0
v -64 -64 0
v -48 -64 0
v -64 -80 0
v -80 -80 0
v -80 -64 0
v -64 -64 0
v -80 -80 0
v -96 -80 0
v -96 -64 0
v -80 -64 0
v -96 -80 0
v -112 -80 0
v -112 -64 0
v -96 -64 0
v -112 -80 0
v -128 -80 0
v -128 -64 0
v -112 -64 0
v -128 -80 0
v -144 -80 0
v -144 -64 0
v -128 -64 0
v -144 -80 0
v -160 -80 0
v -160 -64 0
v -144 -64 0
v -160 -80 0
v -176 -80 0
v -176 -64 0
v -160 -64 0
v -176 -80 0
v -192 -80 0
v -192 -64 0
v -176 -64 0
v -192 -80 0
v -208 -80 0
v -208 -64 0
v -192 -64 0
v -208 -80 0
v -224 -80 0
v -224 -64 0
v -208 -64 0
v -224 -80 0
v -240 -80 0
v -240 -64 0
v -224 -64 0
v -240 -80 0
v -256 -80 0
v -256 -64 0
v -240 -64 0
v 0 -96 0
v -16 -96 0
v -16 -80 0
v 0 -80 0
v -16 -96 0
v -32 -96 0
v -32 -80 0
v -16 -80 0
v -32 -96 0
v -48 -96 0
v -48 -80 0
v -32 -80 0
v -48 -96 0
v -64 -96 0
v -64 -80 0
v -48 -80 0
v -64 -96 0
v -80 -96 0
v -80 -80 0
v -64 -80 0
v -80 -96 0
v -96 -96 0
v -96 -80 0
v -80 -80 0
v -96 -96 0
v -112 -96 0
v -112 -80 0
v -96 -80 0
v -112 -96 0
v -128 -96 0
v -128 -80 0
v -112 -80 0
v -128 -96 0
v -144 -96 0
v -144 -80 0
v -128 -80 0
v -144 -96 0
v -160 -96 0
v -160 -80 0
v -144 -80 0
v -160 -96 0
v -176 -96 0
v -176 -80 0
v -160 -80 0
v -176 -96 0
v -192 -96 0
v -192 -80 0
v -176 -80 0
v -192 -96 0
v -208 -96 0
v -208 -80 0
v -192 -80 0
v -208 -96 0
v -224 -96 0
v -224 -80 0
v -208 -80 0
v -224 -96 0
v -240 -96 0
v -240 -80 0
v -224 -80 0
v -240 -96 0
v -256 -96 0
v -256 -80 0
v -240 -80 0
v 0 -112 0
v -16 -112 0
v -16 -96 0
v 0 -96 0
v -16 -112 0
v -32 -112 0
v -32 -96 0
v -16 -96 0
v -32 -112 0
v -48 -112 0
v -48 -96 0
v -32 -96 0
v -48 -112 0
v -64 -112 0
v -64 -96 0
v -48 -96 0
v -64 -112 0
v -80 -112 0
v -80 -96 0
v -64 -96 0
v -80 -112 0
v -96 -112 0
v -96 -96 0
v -80 -96 0
v -96 -112 0
v -112 -112 0
v -112 -96 0
v -96 -96 0
v -112 -112 0
v -128 -112 0
v -128 -96 0
v -112 -96 0
v -128 -112 0
v -144 -112 0
v -144 -96 0
v -128 -96 0
v -144 -112 0
v -160 -112 0
v -160 -96 0
v -144 -96 0
v -160 -112 0
v -176 -112 0
v -176 -96 0
v -160 -96 0
v -176 -112 0
v -192 -112 0
v -192 -96 0
v -176 -96 0
v -192 -112 0
v -208 -112 0
v -208 -96 0
v -192 -96 0
v -208 -112 0
v -224 -112 0
v -224 -96 0
v -208 -96 0
v -224 -112 0
v -240 -112 0
v -240 -96 0
v -224 -96 0
v -240 -112 0
v -256 -112 0
v -256 -96 0
v -240 -96 0
v 0 -128 0
v -16 -128 0
v -16 -112 0
v 0 -112 0
v -16 -128 0
v -32 -128 0
v -32 -112 0
v -16 -112 0
v -32 -128 0
v -48 -128 0
v -48 -112 0
v -32 -112 0
v -48 -128 0
v -64 -128 0
v -64 -112 0
v -48 -112 0
v -64 -128 0
v -80 -128 0
v -80 -112 0
v -64 -112 0
v -80 -128 0
v -96 -128 0
v -96 -112 0
v -80 -112 0
v -96 -128 0
v -112 -128 0
v -112 -112 0
v -96 -112 0
v -112 -128 0
v -128 -128 0
v -128 -112 0
v -112 -112 0
v -128 -128 0
v -144 -128 0
v -144 -112 0
v -128 -112 0
v -144 -128 0
v -160 -128 0
v -160 -112 0
v -144 -112 0
v -160 -128 0
v -176 -128 0
v -176 -112 0
v -160 -112 0
v -176 -128 0
v -192 -128 0
v -192 -112 0
v -176 -112 0
v -192 -128 0
v -208 -128 0
v -208 -112 0
v -192 -112 0
v -208 -128 0
v -224 -128 0
v -224 -112 0
v -208 -112 0
v -224 -128 0
v -240 -128 0
v -240 -112 0
v -224 -112 0
v -240 -128 0
v -256 -128 0
v -256 -112 0
v -240 -112 0
v 0 -144 0
v -16 -144 0
v -16 -128 0
v 0 -128 0
v -16 -144 0
v -32 -144 0
v -32 -128 0
v -16 -128 0
v -32 -144 0
v -48 -144 0
v -48 -128 0
v -32 -128 0
v -48 -144 0
v -64 -144 0
v -64 -128 0
v -48 -128 0
v -64 -144 0
v -80 -144 0
v -80 -128 0
v -64 -128 0
v -80 -144 0
v -96 -144 0
v -96 -128 0
v -80 -128 0
v -96 -144 0
v -112 -144 0
v -112 -128 0
v -96 -128 0
v -112 -144 0
v -128 -144 0
v -128 -128 0
v -112 -128 0
v -128 -144 0
v -144 -144 0
v -144 -128 0
v -128 -128 0
v -144 -144 0
v -160 -144 0
v -160 -128 0
v -144 -128 0
v -160 -144 0
v -176 -144 0
v -176 -128 0
v -160 -128 0
v -176 -144 0
v -192 -144 0
v -192 -128 0
v -176 -128 0
v -192 -144 0
v -208 -144 0
v -208 -128 0
v -192 -128 0
v -208 -144 0
v -224 -144 0
v -224 -128 0
v -208 -128 0
v -224 -144 0
v -240 -144 0
v -240 -128 0
v -224 -128 0
v -240 -144 0
v -256 -144 0
v -256 -128 0
v -240 -128 0
v 0 -160 0
v -16 -160 0
v -16 -144 0
v 0 -144 0
v -16 -160 0
v -32 -160 0
v -32 -144 0
v -16 -144 0
v -32 -160 0
v -48 -160 0
v -48 -144 0
v -32 -144 0
v -48 -160 0
v -64 -160 0
v -64 -144 0
v -48 -144 0
v -64 -160 0
v -80 -160 0
v -80 -144 0
v -64 -144 0
v -80 -160 0
v -96 -160 0
v -96 -144 0
v -80 -144 0
v -96 -160 0
v -112 -160 0
v -112 -144 0
v -96 -144 0
v -112 -160 0
v -128 -160 0
v -128 -144 0
v -112 -144 0
v -128 -160 0
v -144 -160 0
v -144 -144 0
v -128 -144 0
v -144 -160 0
v -160 -160 0
v -160 -144 0
v -144 -144 0
v -160 -160 0
v -176 -160 0
v -176 -144 0
v -160 -144 0
v -176 -160 0
v -192 -160 0
v -192 -144 0
v -176 -144 0
v -192 -160 0
v -208 -160 0
v -208 -144 0
v -192 -144 0
v -208 -160 0
v -224 -160 0
v -224 -144 0
v -208 -144 0
v -224 -160 0
v -240 -160 0
v -240 -144 0
v -224 -144 0
v -240 -160 0
v -256 -160 0
v -256 -144 0
v -240 -144 0
v 0 -176 0
v -16 -176 0
v -16 -160 0
v 0 -160 0
v -16 -176 0
v -32 -176 0
v -32 -160 0
v -16 -160 0
v -32 -176 0
v -48 -176 0
v -48 -160 0
v -32 -160 0
v -48 -176 0
v -64 -176 0
v -64 -160 0
v -48 -160 0
v -64 -176 0
v -80 -176 0
v -80 -160 0
v -64 -160 0
v -80 -176 0
v -96 -176 0
v -96 -160 0
v -80 -160 0
v -96 -176 0
v -112 -176 0
v -112 -160 0
v -96 -160 0
v -112 -176 0
v -128 -176 0
v -128 -160 0
v -112 -160 0
v -128 -176 0
v -144 -176 0
v -144 -160 0
v -128 -160 0
v -144 -176 0
v -160 -176 0
v -160 -160 0
v -144 -160 0
v -160 -176 0
v -176 -176 0
v -176 -160 0
v -160 -160 0
v -176 -176 0
v -192 -176 0
v -192 -160 0
v -176 -160 0
v -192 -176 0
v -208 -176 0
v -208 -160 0
v -192 -160 0
v -208 -176 0
v -224 -176 0
v -224 -160 0
v -208 -160 0
v -224 -176 0
v -240 -176 0
v -240 -160 0
v -224 -160 0
v -240 -176 0
v -256 -176 0
v -256 -160 0
v -240 -160 0

# Texture cooridinates (Count = 20)
vt 0 0.9
vt 0.1 0.9
vt 0.1 1
vt 0 1
vt 0.2 0.9
vt 0.2 1
vt 0.3 0.9
vt 0.3 1
vt 0 0.8
vt 0.1 0.8
vt 0.8 0.6
vt 0.9 0.6
vt 0.9 0.7
vt 0.8 0.7
vt 0.2 0.8
vt 0.3 0.8
vt 0 0.7
vt 0.1 0.7
vt 0.2 0.7
vt 0.3 0.7

# Normal
vn 0 0 -1

# Mesh description
g lab4_mesh_0001

# Faces
f 1/1/1 2/2/1 3/3/1 4/4/1
f 5/2/1 6/5/1 7/6/1 8/3/1
f 9/2/1 10/5/1 11/6/1 12/3/1
f 13/2/1 14/5/1 15/6/1 16/3/1
f 17/2/1 18/5/1 19/6/1 20/3/1
f 21/2/1 22/5/1 23/6/1 24/3/1
f 25/2/1 26/5/1 27/6/1 28/3/1
f 29/2/1 30/5/1 31/6/1 32/3/1
f 33/2/1 34/5/1 35/6/1 36/3/1
f 37/2/1 38/5/1 39/6/1 40/3/1
f 41/2/1 42/5/1 43/6/1 44/3/1
f 45/2/1 46/5/1 47/6/1 48/3/1
f 49/2/1 50/5/1 51/6/1 52/3/1
f 53/2/1 54/5/1 55/6/1 56/3/1
f 57/2/1 58/5/1 59/6/1 60/3/1
f 61/5/1 62/7/1 63/8/1 64/6/1
f 65/9/1 66/10/1 67/2/1 68/1/1
f 69/11/1 70/12/1 71/13/1 72/14/1
f 73/11/1 74/12/1 75/13/1 76/14/1
f 77/11/1 78/12/1 79/13/1 80/14/1
f 81/11/1 82/12/1 83/13/1 84/14/1
f 85/11/1 86/12/1 87/13/1 88/14/1
f 89/11/1 90/12/1 91/13/1 92/14/1
f 93/10/1 94/15/1 95/5/1 96/2/1
f 97/11/1 98/12/1 99/13/1 100/14/1
f 101/11/1 102/12/1 103/13/1 104/14/1
f 105/11/1 106/12/1 107/13/1 108/14/1
f 109/11/1 110/12/1 111/13/1 112/14/1
f 113/11/1 114/12/1 115/13/1 116/14/1
f 117/11/1 118/12/1 119/13/1 120/14/1
f 121/11/1 122/12/1 123/13/1 124/14/1
f 125/15/1 126/16/1 127/7/1 128/5/1
f 129/9/1 130/10/1 131/2/1 132/1/1
f 133/11/1 134/12/1 135/13/1 136/14/1
f 137/11/1 138/12/1 139/13/1 140/14/1
f 141/11/1 142/12/1 143/13/1 144/14/1
f 145/11/1 146/12/1 147/13/1 148/14/1
f 149/11/1 150/12/1 151/13/1 152/14/1
f 153/11/1 154/12/1 155/13/1 156/14/1
f 157/10/1 158/15/1 159/5/1 160/2/1
f 161/11/1 162/12/1 163/13/1 164/14/1
f 165/11/1 166/12/1 167/13/1 168/14/1
f 169/11/1 170/12/1 171/13/1 172/14/1
f 173/11/1 174/12/1 175/13/1 176/14/1
f 177/11/1 178/12/1 179/13/1 180/14/1
f 181/11/1 182/12/1 183/13/1 184/14/1
f 185/11/1 186/12/1 187/13/1 188/14/1
f 189/15/1 190/16/1 191/7/1 192/5/1
f 193/9/1 194/10/1 195/2/1 196/1/1
f 197/11/1 198/12/1 199/13/1 200/14/1
f 201/11/1 202/12/1 203/13/1 204/14/1
f 205/11/1 206/12/1 207/13/1 208/14/1
f 209/11/1 210/12/1 211/13/1 212/14/1
f 213/11/1 214/12/1 215/13/1 216/14/1
f 217/11/1 218/12/1 219/13/1 220/14/1
f 221/10/1 222/15/1 223/5/1 224/2/1
f 225/11/1 226/12/1 227/13/1 228/14/1
f 229/11/1 230/12/1 231/13/1 232/14/1
f 233/11/1 234/12/1 235/13/1 236/14/1
f 237/11/1 238/12/1 239/13/1 240/14/1
f 241/11/1 242/12/1 243/13/1 244/14/1
f 245/11/1 246/12/1 247/13/1 248/14/1
f 249/11/1 250/12/1 251/13/1 252/14/1
f 253/15/1 254/16/1 255/7/1 256/5/1
f 257/9/1 258/10/1 259/2/1 260/1/1
f 261/11/1 262/12/1 263/13/1 264/14/1
f 265/11/1 266/12/1 267/13/1 268/14/1
f 269/11/1 270/12/1 271/13/1 272/14/1
f 273/11/1 274/12/1 275/13/1 276/14/1
f 277/11/1 278/12/1 279/13/1 280/14/1
f 281/11/1 282/12/1 283/13/1 284/14/1
f 285/10/1 286/15/1 287/5/1 288/2/1
f 289/11/1 290/12/1 291/13/1 292/14/1
f 293/11/1 294/12/1 295/13/1 296/14/1
f 297/11/1 298/12/1 299/13/1 300/14/1
f 301/11/1 302/12/1 303/13/1 304/14/1
f 305/11/1 306/12/1 307/13/1 308/14/1
f 309/11/1 310/12/1 311/13/1 312/14/1
f 313/11/1 314/12/1 315/13/1 316/14/1
f 317/15/1 318/16/1 319/7/1 320/5/1
f 321/9/1 322/10/1 323/2/1 324/1/1
f 325/10/1 326/15/1 327/5/1 328/2/1
f 329/11/1 330/12/1 331/13/1 332/14/1
f 333/11/1 334/12/1 335/13/1 336/14/1
f 337/11/1 338/12/1 339/13/1 340/14/1
f 341/11/1 342/12/1 343/13/1 344/14/1
f 345/11/1 346/12/1 347/13/1 348/14/1
f 349/10/1 350/15/1 351/5/1 352/2/1
f 353/11/1 354/12/1 355/13/1 356/14/1
f 357/11/1 358/12/1 359/13/1 360/14/1
f 361/11/1 362/12/1 363/13/1 364/14/1
f 365/11/1 366/12/1 367/13/1 368/14/1
f 369/11/1 370/12/1 371/13/1 372/14/1
f 373/11/1 374/12/1 375/13/1 376/14/1
f 377/10/1 378/15/1 379/5/1 380/2/1
f 381/15/1 382/16/1 383/7/1 384/5/1
f 385/9/1 386/10/1 387/2/1 388/1/1
f 389/11/1 390/12/1 391/13/1 392/14/1
f 393/11/1 394/12/1 395/13/1 396/14/1
f 397/11/1 398/12/1 399/13/1 400/14/1
f 401/11/1 402/12/1 403/13/1 404/14/1
f 405/11/1 406/12/1 407/13/1 408/14/1
f 409/11/1 410/12/1 411/13/1 412/14/1
f 413/10/1 414/15/1 415/5/1 416/2/1
f 417/11/1 418/12/1 419/13/1 420/14/1
f 421/11/1 422/12/1 423/13/1 424/14/1
f 425/11/1 426/12/1 427/13/1 428/14/1
f 429/11/1 430/12/1 431/13/1 432/14/1
f 433/11/1 434/12/1 435/13/1 436/14/1
f 437/11/1 438/12/1 439/13/1 440/14/1
f 441/11/1 442/12/1 443/13/1 444/14/1
f 445/15/1 446/16/1 447/7/1 448/5/1
f 449/9/1 450/10/1 451/2/1 452/1/1
f 453/11/1 454/12/1 455/13/1 456/14/1
f 457/11/1 458/12/1 459/13/1 460/14/1
f 461/11/1 462/12/1 463/13/1 464/14/1
f 465/11/1 466/12/1 467/13/1 468/14/1
f 469/11/1 470/12/1 471/13/1 472/14/1
f 473/11/1 474/12/1 475/13/1 476/14/1
f 477/10/1 478/15/1 479/5/1 480/2/1
f 481/11/1 482/12/1 483/13/1 484/14/1
f 485/11/1 486/12/1 487/13/1 488/14/1
f 489/11/1 490/12/1 491/13/1 492/14/1
f 493/11/1 494/12/1 495/13/1 496/14/1
f 497/11/1 498/12/1 499/13/1 500/14/1
f 501/11/1 502/12/1 503/13/1 504/14/1
f 505/11/1 506/12/1 507/13/1 508/14/1
f 509/15/1 510/16/1 511/7/1 512/5/1
f 513/9/1 514/10/1 515/2/1 516/1/1
f 517/11/1 518/12/1 519/13/1 520/14/1
f 521/11/1 522/12/1 523/13/1 524/14/1
f 525/11/1 526/12/1 527/13/1 528/14/1
f 529/11/1 530/12/1 531/13/1 532/14/1
f 533/11/1 534/12/1 535/13/1 536/14/1
f 537/11/1 538/12/1 539/13/1 540/14/1
f 541/10/1 542/15/1 543/5/1 544/2/1
f 545/11/1 546/12/1 547/13/1 548/14/1
f 549/11/1 550/12/1 551/13/1 552/14/1
f 553/11/1 554/12/1 555/13/1 556/14/1
f 557/11/1 558/12/1 559/13/1 560/14/1
f 561/11/1 562/12/1 563/13/1 564/14/1
f 565/11/1 566/12/1 567/13/1 568/14/1
f 569/11/1 570/12/1 571/13/1 572/14/1
f 573/15/1 574/16/1 575/7/1 576/5/1
f 577/9/1 578/10/1 579/2/1 580/1/1
f 581/11/1 582/12/1 583/13/1 584/14/1
f 585/11/1 586/12/1 587/13/1 588/14/1
f 589/11/1 590/12/1 591/13/1 592/14/1
f 593/11/1 594/12/1 595/13/1 596/14/1
f 597/11/1 598/12/1 599/13/1 600/14/1
f 601/11/1 602/12/1 603/13/1 604/14/1
f 605/10/1 606/15/1 607/5/1 608/2/1
f 609/11/1 610/12/1 611/13/1 612/14/1
f 613/11/1 614/12/1 615/13/1 616/14/1
f 617/11/1 618/12/1 619/13/1 620/14/1
f 621/11/1 622/12/1 623/13/1 624/14/1
f 625/11/1 626/12/1 627/13/1 628/14/1
f 629/11/1 630/12/1 631/13/1 632/14/1
f 633/11/1 634/12/1 635/13/1 636/14/1
f 637/15/1 638/16/1 639/7/1 640/5/1
f 641/17/1 642/18/1 643/10/1 644/9/1
f 645/18/1 646/19/1 647/15/1 648/10/1
f 649/18/1 650/19/1 651/15/1 652/10/1
f 653/18/1 654/19/1 655/15/1 656/10/1
f 657/18/1 658/19/1 659/15/1 660/10/1
f 661/18/1 662/19/1 663/15/1 664/10/1
f 665/18/1 666/19/1 667/15/1 668/10/1
f 669/18/1 670/19/1 671/15/1 672/10/1
f 673/18/1 674/19/1 675/15/1 676/10/1
f 677/18/1 678/19/1 679/15/1 680/10/1
f 681/18/1 682/19/1 683/15/1 684/10/1
f 685/18/1 686/19/1 687/15/1 688/10/1
f 689/18/1 690/19/1 691/15/1 692/10/1
f 693/18/1 694/19/1 695/15/1 696/10/1
f 697/18/1 698/19/1 699/15/1 700/10/1
f 701/19/1 702/20/1 703/16/1 704/15/1

