# Tiled2Unity generated file. Do not modify by hand.
# Wavefront file for 'lab4_mesh_0012.obj'

# Vertices (Count = 32)
v -112 -96 0
v -128 -96 0
v -128 -80 0
v -112 -80 0
v -112 -112 0
v -128 -112 0
v -128 -96 0
v -112 -96 0
v -112 -128 0
v -128 -128 0
v -128 -112 0
v -112 -112 0
v -112 -144 0
v -128 -144 0
v -128 -128 0
v -112 -128 0
v -112 -160 0
v -128 -160 0
v -128 -144 0
v -112 -144 0
v -128 -160 0
v -144 -160 0
v -144 -144 0
v -128 -144 0
v -112 -176 0
v -128 -176 0
v -128 -160 0
v -112 -160 0
v -128 -176 0
v -144 -176 0
v -144 -160 0
v -128 -160 0

# Texture cooridinates (Count = 8)
vt 0.8 0.6
vt 0.9 0.6
vt 0.9 0.7
vt 0.8 0.7
vt 0.1 0.7
vt 0.2 0.7
vt 0.2 0.8
vt 0.1 0.8

# Normal
vn 0 0 -1

# Mesh description
g lab4_mesh_0012

# Faces
f 1/1/1 2/2/1 3/3/1 4/4/1
f 5/1/1 6/2/1 7/3/1 8/4/1
f 9/1/1 10/2/1 11/3/1 12/4/1
f 13/1/1 14/2/1 15/3/1 16/4/1
f 17/1/1 18/2/1 19/3/1 20/4/1
f 21/1/1 22/2/1 23/3/1 24/4/1
f 25/5/1 26/6/1 27/7/1 28/8/1
f 29/5/1 30/6/1 31/7/1 32/8/1

